<?xml version="1.0" encoding="UTF-8" standalone="no"?><!DOCTYPE svg PUBLIC "-//W3C//DTD SVG 1.1//EN" "http://www.w3.org/Graphics/SVG/1.1/DTD/svg11.dtd"><svg width="100%" height="100%" viewBox="0 0 48 48" version="1.1" xmlns="http://www.w3.org/2000/svg" xmlns:xlink="http://www.w3.org/1999/xlink" xml:space="preserve" xmlns:serif="http://www.serif.com/" style="fill-rule:evenodd;clip-rule:evenodd;stroke-linecap:round;stroke-linejoin:round;"><rect x="0" y="0" width="48" height="48" style="fill:none;"/><g><g><path d="M44.569,44.195c-0.002,1.233 -9.3,2.247 -20.599,2.247c-11.299,0 -20.597,-1.014 -20.599,-2.247l0,0c0,-1.233 9.299,-2.247 20.599,-2.247c11.3,0 20.599,1.014 20.599,2.247l0,0Z" style="fill:url(#_Radial1);fill-rule:nonzero;"/><g opacity="0.4"><rect x="38.872" y="43.446" width="5.322" height="1.873" style="fill:url(#_Radial2);"/><rect x="3.745" y="43.446" width="5.322" height="1.873" style="fill:url(#_Radial3);"/><rect x="9.068" y="43.446" width="29.805" height="1.873" style="fill:url(#_Linear4);"/></g><path d="M43.071,7.678c0,-0.93 -0.755,-1.685 -1.685,-1.685l-34.832,0c-0.93,0 -1.685,0.755 -1.685,1.685l0,34.831c0,0.931 0.755,1.686 1.685,1.686l34.832,0c0.93,0 1.685,-0.755 1.685,-1.686l0,-34.831Z" style="fill:url(#_Radial5);"/><path d="M42.884,7.679c0,-0.827 -0.671,-1.499 -1.498,-1.499l-34.832,0c-0.827,0 -1.498,0.672 -1.498,1.499l0,34.831c0,0.827 0.671,1.498 1.498,1.498l34.832,0c0.827,0 1.498,-0.671 1.498,-1.498l0,-34.831Z" style="fill:none;stroke:url(#_Linear6);stroke-width:0.75px;"/><path d="M42.884,7.679c0,-0.827 -0.671,-1.499 -1.498,-1.499l-34.832,0c-0.827,0 -1.498,0.672 -1.498,1.499l0,34.831c0,0.827 0.671,1.498 1.498,1.498l34.832,0c0.827,0 1.498,-0.671 1.498,-1.498l0,-34.831Z" style="fill:none;"/><path d="M43.258,7.679c0,-1.034 -0.839,-1.873 -1.872,-1.873l-34.832,0c-1.033,0 -1.872,0.839 -1.872,1.873l0,34.831c0,1.034 0.839,1.873 1.872,1.873l34.832,0c1.033,0 1.872,-0.839 1.872,-1.873l0,-34.831Z" style="fill:none;stroke:#000;stroke-opacity:0.25;stroke-width:0.75px;stroke-linecap:butt;stroke-linejoin:miter;"/><path d="M43.258,7.679c0,-1.034 -0.839,-1.873 -1.872,-1.873l-34.832,0c-1.033,0 -1.872,0.839 -1.872,1.873l0,34.831c0,1.034 0.839,1.873 1.872,1.873l34.832,0c1.033,0 1.872,-0.839 1.872,-1.873l0,-34.831Z" style="fill:none;"/></g><path d="M15.895,28.646l0,2.881c0,0.659 0.189,1.138 0.567,1.435c0.379,0.298 0.933,0.453 1.664,0.466l0,1.358c-1.229,-0.013 -2.179,-0.294 -2.852,-0.844c-0.672,-0.55 -1.009,-1.322 -1.009,-2.318l0,-2.939c0,-0.673 -0.203,-1.153 -0.611,-1.441c-0.407,-0.287 -0.999,-0.431 -1.775,-0.431l0,-1.368c0.841,-0.013 1.449,-0.168 1.824,-0.465c0.375,-0.298 0.562,-0.757 0.562,-1.378l0,-2.968c0,-1.002 0.35,-1.782 1.048,-2.338c0.698,-0.556 1.636,-0.834 2.813,-0.834l0,1.348c-1.487,0.039 -2.231,0.683 -2.231,1.931l0,2.861c0,1.39 -0.721,2.212 -2.163,2.464l0,0.116c1.442,0.252 2.163,1.074 2.163,2.464Z" style="fill:#097bcc;fill-rule:nonzero;"/><path d="M28.67,32.632l-7.906,0l0,-14.181l1.649,0l0,12.687l6.257,0l0,1.494Z" style="fill:#0f8ce6;fill-rule:nonzero;"/><path d="M34.189,26.182l0,-0.116c-1.442,-0.252 -2.163,-1.074 -2.163,-2.464l0,-2.861c0,-1.248 -0.734,-1.892 -2.202,-1.931l0,-1.348c1.19,0 2.126,0.281 2.808,0.844c0.682,0.563 1.023,1.339 1.023,2.328l0,2.968c0,0.627 0.191,1.088 0.573,1.382c0.381,0.295 0.992,0.448 1.833,0.461l0,1.368c-0.789,0 -1.387,0.144 -1.795,0.431c-0.407,0.288 -0.611,0.768 -0.611,1.441l0,2.939c0,0.989 -0.331,1.76 -0.994,2.313c-0.663,0.553 -1.609,0.836 -2.837,0.849l0,-1.358c0.718,-0.013 1.264,-0.168 1.639,-0.466c0.375,-0.297 0.563,-0.776 0.563,-1.435l0,-2.881c0,-0.737 0.178,-1.3 0.533,-1.688c0.356,-0.388 0.899,-0.646 1.63,-0.776Z" style="fill:#097bcc;fill-rule:nonzero;"/></g><defs><radialGradient id="_Radial1" cx="0" cy="0" r="1" gradientUnits="userSpaceOnUse" gradientTransform="matrix(41.1985,0,0,4.49438,23.9701,44.1954)"><stop offset="0" style="stop-color:#000;stop-opacity:0.2"/><stop offset="1" style="stop-color:#000;stop-opacity:0"/></radialGradient><radialGradient id="_Radial2" cx="0" cy="0" r="1" gradientUnits="userSpaceOnUse" gradientTransform="matrix(5.32234,0,0,1.87263,38.865,44.3827)"><stop offset="0" style="stop-color:#181818;stop-opacity:0.4"/><stop offset="1" style="stop-color:#181818;stop-opacity:0"/></radialGradient><radialGradient id="_Radial3" cx="0" cy="0" r="1" gradientUnits="userSpaceOnUse" gradientTransform="matrix(5.32234,0,0,1.87263,9.07506,44.3827)"><stop offset="0" style="stop-color:#181818;stop-opacity:0.4"/><stop offset="1" style="stop-color:#181818;stop-opacity:0"/></radialGradient><linearGradient id="_Linear4" x1="0" y1="0" x2="1" y2="0" gradientUnits="userSpaceOnUse" gradientTransform="matrix(5.12506e-15,-1.88022,1.88022,5.12506e-15,25.0964,45.3265)"><stop offset="0" style="stop-color:#181818;stop-opacity:0"/><stop offset="0.5" style="stop-color:#181818;stop-opacity:0.4"/><stop offset="1" style="stop-color:#181818;stop-opacity:0"/></linearGradient><radialGradient id="_Radial5" cx="0" cy="0" r="1" gradientUnits="userSpaceOnUse" gradientTransform="matrix(38.2022,0,0,38.2022,23.9701,5.88271)"><stop offset="0" style="stop-color:#fafafa;stop-opacity:1"/><stop offset="1" style="stop-color:#e1e1e1;stop-opacity:1"/></radialGradient><linearGradient id="_Linear6" x1="0" y1="0" x2="1" y2="0" gradientUnits="userSpaceOnUse" gradientTransform="matrix(-1.43264e-17,0.0890879,-0.0890879,-1.43264e-17,0.0449439,0.000220366)"><stop offset="0" style="stop-color:#fff;stop-opacity:1"/><stop offset="0.03" style="stop-color:#fff;stop-opacity:0.23"/><stop offset="0.96" style="stop-color:#fff;stop-opacity:0.16"/><stop offset="1" style="stop-color:#fff;stop-opacity:0.39"/></linearGradient></defs></svg>