<?xml version="1.0" encoding="UTF-8" standalone="no"?><!-- Generator: Gravit.io --><svg xmlns="http://www.w3.org/2000/svg" xmlns:xlink="http://www.w3.org/1999/xlink" style="isolation:isolate" viewBox="0 0 48 48" width="48pt" height="48pt"><defs><clipPath id="_clipPath_KrbJsvSWqs2aNncpq1F6O9iOW83wemIm"><rect width="48" height="48"/></clipPath></defs><g clip-path="url(#_clipPath_KrbJsvSWqs2aNncpq1F6O9iOW83wemIm)"><clipPath id="_clipPath_SnMemRi3EhtEqr8WX24VXsB9p6Mlu2KE"><rect x="0" y="0" width="48" height="48" transform="matrix(1,0,0,1,0,0)" fill="rgb(255,255,255)"/></clipPath><g clip-path="url(#_clipPath_SnMemRi3EhtEqr8WX24VXsB9p6Mlu2KE)"><g><g><g style="opacity:0.3;"><g opacity="0.3"><radialGradient id="_rgradient_6" fx="5.742864719326946e-7" fy="0.5000000748379718" cx="5.742864719326946e-7" cy="0.5000000748379718" r="0.59203902" gradientTransform="matrix(2.775,0,0,14.012,2.282,33.69)" gradientUnits="userSpaceOnUse"><stop offset="0%" stop-opacity="1" style="stop-color:rgb(0,0,0)"/><stop offset="100%" stop-opacity="0" style="stop-color:rgb(0,0,0)"/></radialGradient><rect x="2.282" y="33.69" width="2.775" height="14.012" transform="matrix(-1,0,0,-1,7.338,81.393)" fill="url(#_rgradient_6)"/></g><g opacity="0.3"><linearGradient id="_lgradient_14" x1="0" y1="0.5" x2="2.83276944882399e-16" y2="-0.5" gradientTransform="matrix(37.88,0,0,14.012,5.057,33.69)" gradientUnits="userSpaceOnUse"><stop offset="0%" stop-opacity="0" style="stop-color:rgb(0,0,0)"/><stop offset="50.002533119777645%" stop-opacity="1" style="stop-color:rgb(0,0,0)"/><stop offset="100%" stop-opacity="0.00005065982900465116" style="stop-color:rgb(0,0,0)"/></linearGradient><rect x="5.057" y="33.69" width="37.88" height="14.012" transform="matrix(1,0,0,1,0,0)" fill="url(#_lgradient_14)"/></g><g opacity="0.3"><radialGradient id="_rgradient_7" fx="0.000001182354502304861" fy="0.5000000748379718" cx="0.000001182354502304861" cy="0.5000000748379718" r="0.59203902" gradientTransform="matrix(2.775,0,0,14.012,42.944,33.69)" gradientUnits="userSpaceOnUse"><stop offset="0%" stop-opacity="1" style="stop-color:rgb(0,0,0)"/><stop offset="100%" stop-opacity="0" style="stop-color:rgb(0,0,0)"/></radialGradient><rect x="42.944" y="33.69" width="2.775" height="14.012" transform="matrix(-1,0,0,-1,88.662,81.393)" fill="url(#_rgradient_7)"/></g></g><linearGradient id="_lgradient_15" x1="0" y1="0.5" x2="0.00660865367666938" y2="1.4999781626098552" gradientTransform="matrix(38.536,0,0,33.54,4.732,11.011)" gradientUnits="userSpaceOnUse"><stop offset="2.601990682514047%" stop-opacity="1" style="stop-color:rgb(232,200,158)"/><stop offset="22.766487034877436%" stop-opacity="1" style="stop-color:rgb(215,178,130)"/><stop offset="26.470170038372753%" stop-opacity="1" style="stop-color:rgb(230,192,144)"/><stop offset="92.72494376756674%" stop-opacity="1" style="stop-color:rgb(159,122,74)"/></linearGradient><mask id="_mask_tilp9lvfzQVRzYkfxb0Czcf6izAQZLaq" x="-200%" y="-200%" width="400%" height="400%"><rect x="-200%" y="-200%" width="400%" height="400%" style="fill:white;"/><path d=" M 9.914 11.037 L 37.635 11.037 C 39.253 11.037 39.981 10.77 40.446 11.967 L 43.267 19.415 L 43.267 43.314 C 43.267 44.76 43.364 44.54 41.745 44.54 L 12.168 44.54 L 6.255 44.54 C 4.637 44.54 4.733 44.76 4.733 43.314 L 4.733 19.415 L 7.554 11.967 C 8.006 10.794 8.295 11.037 9.914 11.037 Z " fill="black" stroke="none"/></mask><linearGradient id="_lgradient_16" x1="0" y1="0.5" x2="6.123233995736766e-17" y2="-0.5"><stop offset="0%" stop-opacity="1" style="stop-color:rgb(157,118,68)"/><stop offset="24.601091477282566%" stop-opacity="1" style="stop-color:rgb(179,145,102)"/><stop offset="28.17943205579639%" stop-opacity="1" style="stop-color:rgb(191,143,85)"/><stop offset="100%" stop-opacity="1" style="stop-color:rgb(167,130,83)"/></linearGradient><path d=" M 9.914 11.037 L 37.635 11.037 C 39.253 11.037 39.981 10.77 40.446 11.967 L 43.267 19.415 L 43.267 43.314 C 43.267 44.76 43.364 44.54 41.745 44.54 L 12.168 44.54 L 6.255 44.54 C 4.637 44.54 4.733 44.76 4.733 43.314 L 4.733 19.415 L 7.554 11.967 C 8.006 10.794 8.295 11.037 9.914 11.037 Z " fill="url(#_lgradient_15)" mask="url(#_mask_tilp9lvfzQVRzYkfxb0Czcf6izAQZLaq)" vector-effect="non-scaling-stroke" stroke-width="3.2" stroke="url(#_lgradient_16)" stroke-linejoin="miter" stroke-linecap="round" stroke-miterlimit="4"/><path d=" M 9.914 11.037 L 37.635 11.037 C 39.253 11.037 39.981 10.77 40.446 11.967 L 43.267 19.415 L 43.267 43.314 C 43.267 44.76 43.364 44.54 41.745 44.54 L 12.168 44.54 L 6.255 44.54 C 4.637 44.54 4.733 44.76 4.733 43.314 L 4.733 19.415 L 7.554 11.967 C 8.006 10.794 8.295 11.037 9.914 11.037 Z " fill="url(#_lgradient_15)"/><radialGradient id="_rgradient_8" fx="0.5000000037037037" fy="0.49999991428571433" cx="0.5000000037037037" cy="0.49999991428571433" r="2.7" gradientTransform="matrix(37.832,0,0,24.521,5.084,19.679)" gradientUnits="userSpaceOnUse"><stop offset="0%" stop-opacity="1" style="stop-color:rgb(203,173,122)"/><stop offset="100%" stop-opacity="0" style="stop-color:rgb(203,174,125)"/></radialGradient><rect x="5.084" y="19.679" width="37.832" height="24.521" transform="matrix(1,0,0,1,0,0)" fill="url(#_rgradient_8)"/><g style="opacity:0.50549454;"><g opacity="0.50549454"><mask id="_mask_lGqfVnKvrYIVZJhBMRh5EgIg1OAm9Rit" x="-200%" y="-200%" width="400%" height="400%"><rect x="-200%" y="-200%" width="400%" height="400%" style="fill:white;"/><path d=" M 10.795 11.98 L 36.782 11.98 C 38.299 11.98 39.238 12.498 39.873 13.922 L 42.062 19.898 L 42.062 41.443 C 42.062 42.803 41.292 43.487 39.776 43.487 L 8.074 43.487 C 6.557 43.487 5.938 42.734 5.938 41.375 L 5.938 19.898 L 8.056 13.793 C 8.48 12.69 9.278 11.98 10.795 11.98 Z " fill="black" stroke="none"/></mask><linearGradient id="_lgradient_17" x1="0" y1="0.5" x2="0.8139533602237955" y2="1.0809302259139149"><stop offset="55.060685773456065%" stop-opacity="0" style="stop-color:rgb(255,255,255)"/><stop offset="100%" stop-opacity="0" style="stop-color:rgb(255,255,255)"/></linearGradient><path d=" M 10.795 11.98 L 36.782 11.98 C 38.299 11.98 39.238 12.498 39.873 13.922 L 42.062 19.898 L 42.062 41.443 C 42.062 42.803 41.292 43.487 39.776 43.487 L 8.074 43.487 C 6.557 43.487 5.938 42.734 5.938 41.375 L 5.938 19.898 L 8.056 13.793 C 8.48 12.69 9.278 11.98 10.795 11.98 Z " fill="none" mask="url(#_mask_lGqfVnKvrYIVZJhBMRh5EgIg1OAm9Rit)" vector-effect="non-scaling-stroke" stroke-width="2.772" stroke="url(#_lgradient_17)" stroke-linejoin="miter" stroke-linecap="butt" stroke-miterlimit="4"/><path d=" M 10.795 11.98 L 36.782 11.98 C 38.299 11.98 39.238 12.498 39.873 13.922 L 42.062 19.898 L 42.062 41.443 C 42.062 42.803 41.292 43.487 39.776 43.487 L 8.074 43.487 C 6.557 43.487 5.938 42.734 5.938 41.375 L 5.938 19.898 L 8.056 13.793 C 8.48 12.69 9.278 11.98 10.795 11.98 Z " fill="none"/></g></g><g style="opacity:0.3;"><g opacity="0.3"><mask id="_mask_qaGXrLYYWgeNQulL6acdVarGhAPkrEPk" x="-200%" y="-200%" width="400%" height="400%"><rect x="-200%" y="-200%" width="400%" height="400%" style="fill:white;"/><line x1="4.734" y1="19.328" x2="43.266" y2="19.328" fill="black" stroke="none"/></mask><linearGradient id="_lgradient_18" x1="0" y1="0.5" x2="1" y2="0.5"><stop offset="0%" stop-opacity="0.011907726756723025" style="stop-color:rgb(255,255,255)"/><stop offset="15.869296177590126%" stop-opacity="1" style="stop-color:rgb(255,255,255)"/><stop offset="84.04838539146984%" stop-opacity="1" style="stop-color:rgb(255,255,255)"/><stop offset="100%" stop-opacity="0.02381541367890805" style="stop-color:rgb(255,255,255)"/></linearGradient><line x1="4.734" y1="19.328" x2="43.266" y2="19.328" mask="url(#_mask_qaGXrLYYWgeNQulL6acdVarGhAPkrEPk)" vector-effect="non-scaling-stroke" stroke-width="3.736" stroke="url(#_lgradient_18)" stroke-linejoin="miter" stroke-linecap="square" stroke-miterlimit="4"/></g></g></g><g opacity="0.3"><path d=" M 17.273 27.107 L 30.773 27.107 C 32.019 27.107 33.023 28.11 33.023 29.357 C 33.023 30.603 32.019 31.607 30.773 31.607 L 17.273 31.607 C 16.026 31.607 15.023 30.603 15.023 29.357 C 15.023 28.11 16.026 27.107 17.273 27.107 Z " fill="rgb(255,255,255)"/></g><g opacity="0.8"><path d=" M 17.273 25.982 L 30.773 25.982 C 32.019 25.982 33.023 26.985 33.023 28.232 C 33.023 29.478 32.019 30.482 30.773 30.482 L 17.273 30.482 C 16.026 30.482 15.023 29.478 15.023 28.232 C 15.023 26.985 16.026 25.982 17.273 25.982 Z " fill="rgb(141,103,56)" fill-opacity="0.7372549"/></g><g opacity="0.1"><path d=" M 17.228 25.982 C 15.981 25.982 14.978 26.985 14.978 28.232 C 14.978 28.651 15.122 29.021 15.32 29.357 C 15.711 28.695 16.401 28.232 17.228 28.232 L 30.728 28.232 C 31.555 28.232 32.244 28.695 32.635 29.357 C 32.833 29.021 32.978 28.651 32.978 28.232 C 32.978 26.985 31.974 25.982 30.728 25.982 L 17.228 25.982 Z " fill="rgb(0,0,0)"/></g><g opacity="0.3"><path d=" M 15.797 13.445 L 31.957 13.445 C 33.449 13.445 34.65 14.087 34.65 14.885 C 34.65 15.682 33.449 16.324 31.957 16.324 L 15.797 16.324 C 14.305 16.324 13.104 15.682 13.104 14.885 C 13.104 14.087 14.305 13.445 15.797 13.445 Z " fill="rgb(255,255,255)"/></g><g opacity="0.8"><path d=" M 15.797 12.726 L 31.957 12.726 C 33.449 12.726 34.65 13.368 34.65 14.165 C 34.65 14.963 33.449 15.604 31.957 15.604 L 15.797 15.604 C 14.305 15.604 13.104 14.963 13.104 14.165 C 13.104 13.368 14.305 12.726 15.797 12.726 Z " fill="rgb(141,103,56)" fill-opacity="0.7372549"/></g><g opacity="0.1"><path d=" M 15.743 12.726 C 14.251 12.726 13.05 13.368 13.05 14.165 C 13.05 14.433 13.223 14.67 13.46 14.885 C 13.928 14.461 14.753 14.165 15.743 14.165 L 31.903 14.165 C 32.893 14.165 33.718 14.461 34.186 14.885 C 34.423 14.67 34.596 14.433 34.596 14.165 C 34.596 13.368 33.395 12.726 31.903 12.726 L 15.743 12.726 Z " fill="rgb(0,0,0)"/></g></g><clipPath id="_clipPath_xBbla5jYNjZc7lNiLH5N2YLCxW4YnPEY"><rect x="5.625" y="1.875" width="37.125" height="13.655" transform="matrix(1,0,0,1,0,0)" fill="rgb(255,255,255)"/></clipPath><g clip-path="url(#_clipPath_xBbla5jYNjZc7lNiLH5N2YLCxW4YnPEY)"><g><linearGradient id="_lgradient_19" x1="0.1464466094067262" y1="0.14644660940672627" x2="0.8535533905932737" y2="0.8535533905932737" gradientTransform="matrix(15.197,-4.13,4.241,16.052,14.442,4.882)" gradientUnits="userSpaceOnUse"><stop offset="0%" stop-opacity="1" style="stop-color:rgb(160,70,185)"/><stop offset="100%" stop-opacity="1" style="stop-color:rgb(87,34,202)"/></linearGradient><path d=" M 22.618 2.66 C 22.291 2.749 22.108 3.071 22.19 3.382 L 22.571 4.824 C 18.375 5.964 15.803 10.033 16.828 13.912 C 17.852 17.79 22.085 20.01 26.282 18.869 C 30.478 17.728 33.05 13.66 32.025 9.781 L 28.769 10.666 C 29.354 12.882 27.884 15.208 25.486 15.859 C 23.089 16.511 20.67 15.243 20.084 13.026 C 19.499 10.81 20.968 8.485 23.366 7.834 L 23.747 9.276 C 23.829 9.586 24.146 9.772 24.473 9.683 C 24.555 9.661 24.639 9.635 24.702 9.587 L 29.249 5.193 C 29.439 5.05 29.543 4.791 29.482 4.558 C 29.42 4.326 29.203 4.154 28.968 4.127 L 22.863 2.627 C 22.785 2.618 22.699 2.638 22.618 2.66 Z " fill="url(#_lgradient_19)"/><mask id="_mask_4C9TwnuzBzOfD9vDExpE0XLliQ6v7fyh" x="-200%" y="-200%" width="400%" height="400%"><rect x="-200%" y="-200%" width="400%" height="400%" style="fill:white;"/><path d=" M 22.75 3.162 C 22.736 3.166 22.719 3.18 22.733 3.234 L 23.114 4.676 C 23.175 4.939 22.984 5.241 22.704 5.325 C 18.809 6.384 16.42 10.165 17.371 13.764 C 18.321 17.363 22.255 19.426 26.149 18.368 C 29.858 17.36 32.154 13.885 31.547 10.449 L 29.342 11.048 C 29.653 13.374 28.127 15.68 25.619 16.361 C 22.919 17.095 20.201 15.67 19.541 13.174 C 18.882 10.679 20.533 8.066 23.234 7.332 C 23.518 7.263 23.832 7.428 23.909 7.686 L 24.29 9.128 C 24.304 9.182 24.326 9.186 24.341 9.182 L 28.828 4.837 C 29.069 4.669 28.778 4.649 28.778 4.649 L 22.75 3.162 Z " fill="black" stroke="none"/></mask><linearGradient id="_lgradient_20" x1="0.1464466094067262" y1="0.14644660940672627" x2="0.8535533905932737" y2="0.8535533905932737"><stop offset="0%" stop-opacity="1" style="stop-color:rgb(97,39,200)"/><stop offset="100%" stop-opacity="1" style="stop-color:rgb(49,21,140)"/></linearGradient><path d=" M 22.75 3.162 C 22.736 3.166 22.719 3.18 22.733 3.234 L 23.114 4.676 C 23.175 4.939 22.984 5.241 22.704 5.325 C 18.809 6.384 16.42 10.165 17.371 13.764 C 18.321 17.363 22.255 19.426 26.149 18.368 C 29.858 17.36 32.154 13.885 31.547 10.449 L 29.342 11.048 C 29.653 13.374 28.127 15.68 25.619 16.361 C 22.919 17.095 20.201 15.67 19.541 13.174 C 18.882 10.679 20.533 8.066 23.234 7.332 C 23.518 7.263 23.832 7.428 23.909 7.686 L 24.29 9.128 C 24.304 9.182 24.326 9.186 24.341 9.182 L 28.828 4.837 C 29.069 4.669 28.778 4.649 28.778 4.649 L 22.75 3.162 Z " fill="none" mask="url(#_mask_4C9TwnuzBzOfD9vDExpE0XLliQ6v7fyh)" vector-effect="non-scaling-stroke" stroke-width="2.6" stroke="url(#_lgradient_20)" stroke-opacity="100" stroke-linejoin="round" stroke-linecap="round" stroke-miterlimit="4"/><path d=" M 22.75 3.162 C 22.736 3.166 22.719 3.18 22.733 3.234 L 23.114 4.676 C 23.175 4.939 22.984 5.241 22.704 5.325 C 18.809 6.384 16.42 10.165 17.371 13.764 C 18.321 17.363 22.255 19.426 26.149 18.368 C 29.858 17.36 32.154 13.885 31.547 10.449 L 29.342 11.048 C 29.653 13.374 28.127 15.68 25.619 16.361 C 22.919 17.095 20.201 15.67 19.541 13.174 C 18.882 10.679 20.533 8.066 23.234 7.332 C 23.518 7.263 23.832 7.428 23.909 7.686 L 24.29 9.128 C 24.304 9.182 24.326 9.186 24.341 9.182 L 28.828 4.837 C 29.069 4.669 28.778 4.649 28.778 4.649 L 22.75 3.162 Z " fill="none"/></g></g></g></g></svg>