<?xml version="1.0" encoding="UTF-8" standalone="no"?><!-- Generator: Gravit.io --><svg xmlns="http://www.w3.org/2000/svg" xmlns:xlink="http://www.w3.org/1999/xlink" style="isolation:isolate" viewBox="0 0 24 24" width="24pt" height="24pt"><defs><clipPath id="_clipPath_O3pj5hJF1Aofc4UposHu3hA7hijpBPxD"><rect width="24" height="24"/></clipPath></defs><g clip-path="url(#_clipPath_O3pj5hJF1Aofc4UposHu3hA7hijpBPxD)"><clipPath id="_clipPath_rZSNb7avlA83THGGrgyLagBfEpu7daej"><rect x="0" y="0" width="24" height="24" transform="matrix(1,0,0,1,0,0)" fill="rgb(255,255,255)"/></clipPath><g clip-path="url(#_clipPath_rZSNb7avlA83THGGrgyLagBfEpu7daej)"><g><g><g style="opacity:0.3;"><g opacity="0.3"><radialGradient id="_rgradient_12" fx="5.742864719326946e-7" fy="0.5000000748379718" cx="5.742864719326946e-7" cy="0.5000000748379718" r="0.59203902" gradientTransform="matrix(1.387,0,0,7.006,1.141,16.845)" gradientUnits="userSpaceOnUse"><stop offset="0%" stop-opacity="1" style="stop-color:rgb(0,0,0)"/><stop offset="100%" stop-opacity="0" style="stop-color:rgb(0,0,0)"/></radialGradient><rect x="1.141" y="16.845" width="1.387" height="7.006" transform="matrix(-1,0,0,-1,3.669,40.696)" fill="url(#_rgradient_12)"/></g><g opacity="0.3"><linearGradient id="_lgradient_28" x1="0" y1="0.5" x2="2.83276944882399e-16" y2="-0.5" gradientTransform="matrix(18.94,0,0,7.006,2.528,16.845)" gradientUnits="userSpaceOnUse"><stop offset="0%" stop-opacity="0" style="stop-color:rgb(0,0,0)"/><stop offset="50.002533119777645%" stop-opacity="1" style="stop-color:rgb(0,0,0)"/><stop offset="100%" stop-opacity="0.00005065982900465116" style="stop-color:rgb(0,0,0)"/></linearGradient><rect x="2.528" y="16.845" width="18.94" height="7.006" transform="matrix(1,0,0,1,0,0)" fill="url(#_lgradient_28)"/></g><g opacity="0.3"><radialGradient id="_rgradient_13" fx="0.000001182354502304861" fy="0.5000000748379718" cx="0.000001182354502304861" cy="0.5000000748379718" r="0.59203902" gradientTransform="matrix(1.387,0,0,7.006,21.472,16.845)" gradientUnits="userSpaceOnUse"><stop offset="0%" stop-opacity="1" style="stop-color:rgb(0,0,0)"/><stop offset="100%" stop-opacity="0" style="stop-color:rgb(0,0,0)"/></radialGradient><rect x="21.472" y="16.845" width="1.387" height="7.006" transform="matrix(-1,0,0,-1,44.331,40.696)" fill="url(#_rgradient_13)"/></g></g><linearGradient id="_lgradient_29" x1="0" y1="0.5" x2="0.00660865367666938" y2="1.4999781626098552" gradientTransform="matrix(19.268,0,0,16.77,2.366,5.506)" gradientUnits="userSpaceOnUse"><stop offset="2.601990682514047%" stop-opacity="1" style="stop-color:rgb(232,200,158)"/><stop offset="22.766487034877436%" stop-opacity="1" style="stop-color:rgb(215,178,130)"/><stop offset="26.470170038372753%" stop-opacity="1" style="stop-color:rgb(230,192,144)"/><stop offset="92.72494376756674%" stop-opacity="1" style="stop-color:rgb(159,122,74)"/></linearGradient><mask id="_mask_smNtIgxJ2Zi4vomawjNrmVCSfoWYMOja" x="-200%" y="-200%" width="400%" height="400%"><rect x="-200%" y="-200%" width="400%" height="400%" style="fill:white;"/><path d=" M 4.957 5.518 L 18.817 5.518 C 19.626 5.518 19.991 5.385 20.223 5.984 L 21.633 9.707 L 21.633 21.657 C 21.633 22.38 21.682 22.27 20.873 22.27 L 6.084 22.27 L 3.127 22.27 C 2.318 22.27 2.367 22.38 2.367 21.657 L 2.367 9.707 L 3.777 5.984 C 4.003 5.397 4.148 5.518 4.957 5.518 Z " fill="black" stroke="none"/></mask><linearGradient id="_lgradient_30" x1="0" y1="0.5" x2="6.123233995736766e-17" y2="-0.5"><stop offset="0%" stop-opacity="1" style="stop-color:rgb(157,118,68)"/><stop offset="24.601091477282566%" stop-opacity="1" style="stop-color:rgb(179,145,102)"/><stop offset="28.17943205579639%" stop-opacity="1" style="stop-color:rgb(191,143,85)"/><stop offset="100%" stop-opacity="1" style="stop-color:rgb(167,130,83)"/></linearGradient><path d=" M 4.957 5.518 L 18.817 5.518 C 19.626 5.518 19.991 5.385 20.223 5.984 L 21.633 9.707 L 21.633 21.657 C 21.633 22.38 21.682 22.27 20.873 22.27 L 6.084 22.27 L 3.127 22.27 C 2.318 22.27 2.367 22.38 2.367 21.657 L 2.367 9.707 L 3.777 5.984 C 4.003 5.397 4.148 5.518 4.957 5.518 Z " fill="url(#_lgradient_29)" mask="url(#_mask_smNtIgxJ2Zi4vomawjNrmVCSfoWYMOja)" vector-effect="non-scaling-stroke" stroke-width="1.2" stroke="url(#_lgradient_30)" stroke-linejoin="miter" stroke-linecap="round" stroke-miterlimit="4"/><path d=" M 4.957 5.518 L 18.817 5.518 C 19.626 5.518 19.991 5.385 20.223 5.984 L 21.633 9.707 L 21.633 21.657 C 21.633 22.38 21.682 22.27 20.873 22.27 L 6.084 22.27 L 3.127 22.27 C 2.318 22.27 2.367 22.38 2.367 21.657 L 2.367 9.707 L 3.777 5.984 C 4.003 5.397 4.148 5.518 4.957 5.518 Z " fill="url(#_lgradient_29)"/><radialGradient id="_rgradient_14" fx="0.5000000037037037" fy="0.49999991428571433" cx="0.5000000037037037" cy="0.49999991428571433" r="2.7" gradientTransform="matrix(18.916,0,0,12.26,2.542,9.839)" gradientUnits="userSpaceOnUse"><stop offset="0%" stop-opacity="1" style="stop-color:rgb(203,173,122)"/><stop offset="100%" stop-opacity="0" style="stop-color:rgb(203,174,125)"/></radialGradient><rect x="2.542" y="9.839" width="18.916" height="12.26" transform="matrix(1,0,0,1,0,0)" fill="url(#_rgradient_14)"/><g style="opacity:0.50549454;"><g opacity="0.50549454"><mask id="_mask_h0ONvoDQAHYhySGsqS9t3TfyGdiBg6Ty" x="-200%" y="-200%" width="400%" height="400%"><rect x="-200%" y="-200%" width="400%" height="400%" style="fill:white;"/><path d=" M 5.397 5.99 L 18.391 5.99 C 19.15 5.99 19.619 6.249 19.937 6.961 L 21.031 9.949 L 21.031 20.721 C 21.031 21.401 20.646 21.744 19.888 21.744 L 4.037 21.744 C 3.278 21.744 2.969 21.367 2.969 20.687 L 2.969 9.949 L 4.028 6.897 C 4.24 6.345 4.639 5.99 5.397 5.99 Z " fill="black" stroke="none"/></mask><linearGradient id="_lgradient_31" x1="0" y1="0.5" x2="0.8139533602237955" y2="1.0809302259139149"><stop offset="55.060685773456065%" stop-opacity="0" style="stop-color:rgb(255,255,255)"/><stop offset="100%" stop-opacity="0" style="stop-color:rgb(255,255,255)"/></linearGradient><path d=" M 5.397 5.99 L 18.391 5.99 C 19.15 5.99 19.619 6.249 19.937 6.961 L 21.031 9.949 L 21.031 20.721 C 21.031 21.401 20.646 21.744 19.888 21.744 L 4.037 21.744 C 3.278 21.744 2.969 21.367 2.969 20.687 L 2.969 9.949 L 4.028 6.897 C 4.24 6.345 4.639 5.99 5.397 5.99 Z " fill="none" mask="url(#_mask_h0ONvoDQAHYhySGsqS9t3TfyGdiBg6Ty)" vector-effect="non-scaling-stroke" stroke-width="2.772" stroke="url(#_lgradient_31)" stroke-linejoin="miter" stroke-linecap="butt" stroke-miterlimit="4"/><path d=" M 5.397 5.99 L 18.391 5.99 C 19.15 5.99 19.619 6.249 19.937 6.961 L 21.031 9.949 L 21.031 20.721 C 21.031 21.401 20.646 21.744 19.888 21.744 L 4.037 21.744 C 3.278 21.744 2.969 21.367 2.969 20.687 L 2.969 9.949 L 4.028 6.897 C 4.24 6.345 4.639 5.99 5.397 5.99 Z " fill="none"/></g></g><g style="opacity:0.3;"><g opacity="0.3"><mask id="_mask_tLbq4IfrH0RoywkhAeufXH9hL0aT2NBc" x="-200%" y="-200%" width="400%" height="400%"><rect x="-200%" y="-200%" width="400%" height="400%" style="fill:white;"/><line x1="2.367" y1="9.664" x2="21.633" y2="9.664" fill="black" stroke="none"/></mask><linearGradient id="_lgradient_32" x1="0" y1="0.5" x2="1" y2="0.5"><stop offset="0%" stop-opacity="0.011907726756723025" style="stop-color:rgb(255,255,255)"/><stop offset="15.869296177590126%" stop-opacity="1" style="stop-color:rgb(255,255,255)"/><stop offset="84.04838539146984%" stop-opacity="1" style="stop-color:rgb(255,255,255)"/><stop offset="100%" stop-opacity="0.02381541367890805" style="stop-color:rgb(255,255,255)"/></linearGradient><line x1="2.367" y1="9.664" x2="21.633" y2="9.664" mask="url(#_mask_tLbq4IfrH0RoywkhAeufXH9hL0aT2NBc)" vector-effect="non-scaling-stroke" stroke-width="3.736" stroke="url(#_lgradient_32)" stroke-linejoin="miter" stroke-linecap="square" stroke-miterlimit="4"/></g></g></g><g opacity="0.3"><path d=" M 8.636 13.553 L 15.386 13.553 C 16.01 13.553 16.511 14.055 16.511 14.678 C 16.511 15.302 16.01 15.803 15.386 15.803 L 8.636 15.803 C 8.013 15.803 7.511 15.302 7.511 14.678 C 7.511 14.055 8.013 13.553 8.636 13.553 Z " fill="rgb(255,255,255)"/></g><g opacity="0.8"><path d=" M 8.636 12.991 L 15.386 12.991 C 16.01 12.991 16.511 13.493 16.511 14.116 C 16.511 14.739 16.01 15.241 15.386 15.241 L 8.636 15.241 C 8.013 15.241 7.511 14.739 7.511 14.116 C 7.511 13.493 8.013 12.991 8.636 12.991 Z " fill="rgb(141,103,56)" fill-opacity="0.7372549"/></g><g opacity="0.1"><path d=" M 8.614 12.991 C 7.991 12.991 7.489 13.493 7.489 14.116 C 7.489 14.326 7.561 14.511 7.66 14.678 C 7.856 14.348 8.2 14.116 8.614 14.116 L 15.364 14.116 C 15.777 14.116 16.122 14.348 16.317 14.678 C 16.417 14.511 16.489 14.326 16.489 14.116 C 16.489 13.493 15.987 12.991 15.364 12.991 L 8.614 12.991 Z " fill="rgb(0,0,0)"/></g><g opacity="0.3"><path d=" M 7.899 6.723 L 15.978 6.723 C 16.724 6.723 17.325 7.044 17.325 7.442 C 17.325 7.841 16.724 8.162 15.978 8.162 L 7.899 8.162 C 7.153 8.162 6.552 7.841 6.552 7.442 C 6.552 7.044 7.153 6.723 7.899 6.723 Z " fill="rgb(255,255,255)"/></g><g opacity="0.8"><path d=" M 7.899 6.363 L 15.978 6.363 C 16.724 6.363 17.325 6.684 17.325 7.083 C 17.325 7.481 16.724 7.802 15.978 7.802 L 7.899 7.802 C 7.153 7.802 6.552 7.481 6.552 7.083 C 6.552 6.684 7.153 6.363 7.899 6.363 Z " fill="rgb(141,103,56)" fill-opacity="0.7372549"/></g><g opacity="0.1"><path d=" M 7.872 6.363 C 7.126 6.363 6.525 6.684 6.525 7.083 C 6.525 7.217 6.612 7.335 6.73 7.442 C 6.964 7.231 7.377 7.083 7.872 7.083 L 15.951 7.083 C 16.447 7.083 16.859 7.231 17.093 7.442 C 17.212 7.335 17.298 7.217 17.298 7.083 C 17.298 6.684 16.697 6.363 15.951 6.363 L 7.872 6.363 Z " fill="rgb(0,0,0)"/></g></g><clipPath id="_clipPath_B8EVqwzNlyOaa2laOLYLwgIEsHfevdiq"><rect x="2.813" y="0.938" width="18.562" height="6.827" transform="matrix(1,0,0,1,0,0)" fill="rgb(255,255,255)"/></clipPath><g clip-path="url(#_clipPath_B8EVqwzNlyOaa2laOLYLwgIEsHfevdiq)"><g><linearGradient id="_lgradient_33" x1="0.1464466094067262" y1="0.14644660940672627" x2="0.8535533905932737" y2="0.8535533905932737" gradientTransform="matrix(7.599,-2.065,2.12,8.026,7.221,2.441)" gradientUnits="userSpaceOnUse"><stop offset="0%" stop-opacity="1" style="stop-color:rgb(160,70,185)"/><stop offset="100%" stop-opacity="1" style="stop-color:rgb(87,34,202)"/></linearGradient><path d=" M 11.309 1.33 C 11.145 1.375 11.054 1.536 11.095 1.691 L 11.286 2.412 C 9.187 2.982 7.901 5.016 8.414 6.956 C 8.926 8.895 11.043 10.005 13.141 9.435 C 15.239 8.864 16.525 6.83 16.012 4.891 L 14.384 5.333 C 14.677 6.441 13.942 7.604 12.743 7.93 C 11.544 8.255 10.335 7.621 10.042 6.513 C 9.75 5.405 10.484 4.243 11.683 3.917 L 11.874 4.638 C 11.915 4.793 12.073 4.886 12.237 4.842 C 12.277 4.831 12.319 4.818 12.351 4.794 L 14.625 2.597 C 14.72 2.525 14.772 2.396 14.741 2.279 C 14.71 2.163 14.601 2.077 14.484 2.063 L 11.432 1.314 C 11.392 1.309 11.35 1.319 11.309 1.33 Z " fill="url(#_lgradient_33)"/><mask id="_mask_fvD2NeQicQ6oW9X7RDmKuZoTX3x3OTP7" x="-200%" y="-200%" width="400%" height="400%"><rect x="-200%" y="-200%" width="400%" height="400%" style="fill:white;"/><path d=" M 11.375 1.581 C 11.368 1.583 11.359 1.59 11.367 1.617 L 11.557 2.338 C 11.587 2.469 11.492 2.621 11.352 2.663 C 9.405 3.192 8.21 5.082 8.685 6.882 C 9.161 8.682 11.127 9.713 13.075 9.184 C 14.929 8.68 16.077 6.942 15.773 5.224 L 14.671 5.524 C 14.826 6.687 14.063 7.84 12.809 8.181 C 11.459 8.548 10.1 7.835 9.771 6.587 C 9.441 5.339 10.267 4.033 11.617 3.666 C 11.759 3.631 11.916 3.714 11.955 3.843 L 12.145 4.564 C 12.152 4.591 12.163 4.593 12.17 4.591 L 14.414 2.419 C 14.535 2.334 14.389 2.324 14.389 2.324 L 11.375 1.581 Z " fill="black" stroke="none"/></mask><linearGradient id="_lgradient_34" x1="0.1464466094067262" y1="0.14644660940672627" x2="0.8535533905932737" y2="0.8535533905932737"><stop offset="0%" stop-opacity="1" style="stop-color:rgb(97,39,200)"/><stop offset="100%" stop-opacity="1" style="stop-color:rgb(49,21,140)"/></linearGradient><path d=" M 11.375 1.581 C 11.368 1.583 11.359 1.59 11.367 1.617 L 11.557 2.338 C 11.587 2.469 11.492 2.621 11.352 2.663 C 9.405 3.192 8.21 5.082 8.685 6.882 C 9.161 8.682 11.127 9.713 13.075 9.184 C 14.929 8.68 16.077 6.942 15.773 5.224 L 14.671 5.524 C 14.826 6.687 14.063 7.84 12.809 8.181 C 11.459 8.548 10.1 7.835 9.771 6.587 C 9.441 5.339 10.267 4.033 11.617 3.666 C 11.759 3.631 11.916 3.714 11.955 3.843 L 12.145 4.564 C 12.152 4.591 12.163 4.593 12.17 4.591 L 14.414 2.419 C 14.535 2.334 14.389 2.324 14.389 2.324 L 11.375 1.581 Z " fill="none" mask="url(#_mask_fvD2NeQicQ6oW9X7RDmKuZoTX3x3OTP7)" vector-effect="non-scaling-stroke" stroke-width="1.2" stroke="url(#_lgradient_34)" stroke-opacity="100" stroke-linejoin="round" stroke-linecap="round" stroke-miterlimit="4"/><path d=" M 11.375 1.581 C 11.368 1.583 11.359 1.59 11.367 1.617 L 11.557 2.338 C 11.587 2.469 11.492 2.621 11.352 2.663 C 9.405 3.192 8.21 5.082 8.685 6.882 C 9.161 8.682 11.127 9.713 13.075 9.184 C 14.929 8.68 16.077 6.942 15.773 5.224 L 14.671 5.524 C 14.826 6.687 14.063 7.84 12.809 8.181 C 11.459 8.548 10.1 7.835 9.771 6.587 C 9.441 5.339 10.267 4.033 11.617 3.666 C 11.759 3.631 11.916 3.714 11.955 3.843 L 12.145 4.564 C 12.152 4.591 12.163 4.593 12.17 4.591 L 14.414 2.419 C 14.535 2.334 14.389 2.324 14.389 2.324 L 11.375 1.581 Z " fill="none"/></g></g></g></g></svg>