<?xml version="1.0" encoding="UTF-8" standalone="no"?><!DOCTYPE svg PUBLIC "-//W3C//DTD SVG 1.1//EN" "http://www.w3.org/Graphics/SVG/1.1/DTD/svg11.dtd"><svg width="100%" height="100%" viewBox="0 0 24 24" version="1.1" xmlns="http://www.w3.org/2000/svg" xmlns:xlink="http://www.w3.org/1999/xlink" xml:space="preserve" xmlns:serif="http://www.serif.com/" style="fill-rule:evenodd;clip-rule:evenodd;stroke-linecap:round;stroke-linejoin:round;"><rect x="0" y="0" width="24" height="24" style="fill:none;"/><g><g><path d="M22.285,22.098c-0.001,0.616 -4.65,1.123 -10.3,1.123c-5.649,0 -10.299,-0.507 -10.3,-1.123l0,0c0,-0.617 4.65,-1.124 10.3,-1.124c5.65,0 10.3,0.507 10.3,1.124l0,0Z" style="fill:url(#_Radial1);fill-rule:nonzero;"/><g opacity="0.4"><rect x="19.436" y="21.723" width="2.661" height="0.936" style="fill:url(#_Radial2);"/><rect x="1.873" y="21.723" width="2.661" height="0.936" style="fill:url(#_Radial3);"/><rect x="4.534" y="21.723" width="14.902" height="0.936" style="fill:url(#_Linear4);"/></g><path d="M21.536,3.839c0,-0.465 -0.378,-0.843 -0.843,-0.843l-17.416,0c-0.465,0 -0.843,0.378 -0.843,0.843l0,17.416c0,0.465 0.378,0.842 0.843,0.842l17.416,0c0.465,0 0.843,-0.377 0.843,-0.842l0,-17.416Z" style="fill:url(#_Radial5);"/><path d="M21.442,3.839c0,-0.413 -0.336,-0.749 -0.749,-0.749l-17.416,0c-0.413,0 -0.749,0.336 -0.749,0.749l0,17.416c0,0.413 0.336,0.749 0.749,0.749l17.416,0c0.413,0 0.749,-0.336 0.749,-0.749l0,-17.416Z" style="fill:none;stroke:url(#_Linear6);stroke-width:0.37px;"/><path d="M21.442,3.839c0,-0.413 -0.336,-0.749 -0.749,-0.749l-17.416,0c-0.413,0 -0.749,0.336 -0.749,0.749l0,17.416c0,0.413 0.336,0.749 0.749,0.749l17.416,0c0.413,0 0.749,-0.336 0.749,-0.749l0,-17.416Z" style="fill:none;"/><path d="M21.629,3.839c0,-0.516 -0.419,-0.936 -0.936,-0.936l-17.416,0c-0.517,0 -0.936,0.42 -0.936,0.936l0,17.416c0,0.517 0.419,0.936 0.936,0.936l17.416,0c0.517,0 0.936,-0.419 0.936,-0.936l0,-17.416Z" style="fill:none;stroke:#000;stroke-opacity:0.25;stroke-width:0.37px;stroke-linecap:butt;stroke-linejoin:miter;"/><path d="M21.629,3.839c0,-0.516 -0.419,-0.936 -0.936,-0.936l-17.416,0c-0.517,0 -0.936,0.42 -0.936,0.936l0,17.416c0,0.517 0.419,0.936 0.936,0.936l17.416,0c0.517,0 0.936,-0.419 0.936,-0.936l0,-17.416Z" style="fill:none;"/></g><path d="M7.947,14.323l0,1.44c0,0.33 0.095,0.569 0.284,0.718c0.189,0.149 0.467,0.227 0.832,0.233l0,0.679c-0.614,-0.006 -1.09,-0.147 -1.426,-0.422c-0.336,-0.275 -0.504,-0.661 -0.504,-1.159l0,-1.47c0,-0.336 -0.102,-0.576 -0.306,-0.72c-0.204,-0.144 -0.499,-0.216 -0.887,-0.216l0,-0.683c0.42,-0.007 0.724,-0.085 0.911,-0.233c0.188,-0.149 0.282,-0.379 0.282,-0.689l0,-1.484c0,-0.501 0.174,-0.891 0.523,-1.169c0.35,-0.278 0.819,-0.417 1.407,-0.417l0,0.674c-0.744,0.02 -1.116,0.341 -1.116,0.965l0,1.431c0,0.695 -0.36,1.106 -1.081,1.232l0,0.058c0.721,0.126 1.081,0.537 1.081,1.232Z" style="fill:#097bcc;fill-rule:nonzero;"/><path d="M14.335,16.316l-3.953,0l0,-7.091l0.825,0l0,6.344l3.128,0l0,0.747Z" style="fill:#0f8ce6;fill-rule:nonzero;"/><path d="M17.094,13.091l0,-0.058c-0.721,-0.126 -1.081,-0.537 -1.081,-1.232l0,-1.431c0,-0.624 -0.367,-0.945 -1.101,-0.965l0,-0.674c0.595,0 1.063,0.141 1.404,0.422c0.341,0.281 0.512,0.669 0.512,1.164l0,1.484c0,0.314 0.095,0.544 0.286,0.691c0.191,0.147 0.496,0.224 0.916,0.231l0,0.683c-0.394,0 -0.693,0.072 -0.897,0.216c-0.204,0.144 -0.305,0.384 -0.305,0.72l0,1.47c0,0.495 -0.166,0.88 -0.497,1.157c-0.332,0.276 -0.805,0.418 -1.419,0.424l0,-0.679c0.359,-0.006 0.632,-0.084 0.82,-0.233c0.187,-0.149 0.281,-0.388 0.281,-0.718l0,-1.44c0,-0.369 0.089,-0.65 0.267,-0.844c0.177,-0.194 0.449,-0.323 0.814,-0.388Z" style="fill:#097bcc;fill-rule:nonzero;"/></g><defs><radialGradient id="_Radial1" cx="0" cy="0" r="1" gradientUnits="userSpaceOnUse" gradientTransform="matrix(20.5992,0,0,2.24719,11.985,22.0977)"><stop offset="0" style="stop-color:#000;stop-opacity:0.2"/><stop offset="1" style="stop-color:#000;stop-opacity:0"/></radialGradient><radialGradient id="_Radial2" cx="0" cy="0" r="1" gradientUnits="userSpaceOnUse" gradientTransform="matrix(2.66117,0,0,0.936315,19.4325,22.1914)"><stop offset="0" style="stop-color:#181818;stop-opacity:0.4"/><stop offset="1" style="stop-color:#181818;stop-opacity:0"/></radialGradient><radialGradient id="_Radial3" cx="0" cy="0" r="1" gradientUnits="userSpaceOnUse" gradientTransform="matrix(2.66117,0,0,0.936315,4.53753,22.1914)"><stop offset="0" style="stop-color:#181818;stop-opacity:0.4"/><stop offset="1" style="stop-color:#181818;stop-opacity:0"/></radialGradient><linearGradient id="_Linear4" x1="0" y1="0" x2="1" y2="0" gradientUnits="userSpaceOnUse" gradientTransform="matrix(2.56253e-15,-0.940112,0.940112,2.56253e-15,12.5482,22.6632)"><stop offset="0" style="stop-color:#181818;stop-opacity:0"/><stop offset="0.5" style="stop-color:#181818;stop-opacity:0.4"/><stop offset="1" style="stop-color:#181818;stop-opacity:0"/></linearGradient><radialGradient id="_Radial5" cx="0" cy="0" r="1" gradientUnits="userSpaceOnUse" gradientTransform="matrix(19.1011,0,0,19.1011,11.985,2.94135)"><stop offset="0" style="stop-color:#fafafa;stop-opacity:1"/><stop offset="1" style="stop-color:#e1e1e1;stop-opacity:1"/></radialGradient><linearGradient id="_Linear6" x1="0" y1="0" x2="1" y2="0" gradientUnits="userSpaceOnUse" gradientTransform="matrix(-7.16322e-18,0.044544,-0.044544,-7.16322e-18,0.022472,0.000110183)"><stop offset="0" style="stop-color:#fff;stop-opacity:1"/><stop offset="0.03" style="stop-color:#fff;stop-opacity:0.23"/><stop offset="0.96" style="stop-color:#fff;stop-opacity:0.16"/><stop offset="1" style="stop-color:#fff;stop-opacity:0.39"/></linearGradient></defs></svg>