<?xml version="1.0" encoding="UTF-8" standalone="no"?><!-- Generator: Gravit.io --><svg xmlns="http://www.w3.org/2000/svg" xmlns:xlink="http://www.w3.org/1999/xlink" style="isolation:isolate" viewBox="0 0 128 128" width="128pt" height="128pt"><defs><clipPath id="_clipPath_zW0XVuFj5K2Aadqa09hxh0SHj9jn3pfD"><rect width="128" height="128"/></clipPath></defs><g clip-path="url(#_clipPath_zW0XVuFj5K2Aadqa09hxh0SHj9jn3pfD)"><clipPath id="_clipPath_LHNjogZ1EbK53G6ACHzhcdbLHxdeIIpk"><rect x="0" y="0" width="128" height="128" transform="matrix(1,0,0,1,0,0)" fill="rgb(255,255,255)"/></clipPath><g clip-path="url(#_clipPath_LHNjogZ1EbK53G6ACHzhcdbLHxdeIIpk)"><g><g><g style="opacity:0.3;"><g opacity="0.3"><radialGradient id="_rgradient_0" fx="5.742864719326946e-7" fy="0.5000000748379718" cx="5.742864719326946e-7" cy="0.5000000748379718" r="0.59203902" gradientTransform="matrix(7.399,0,0,37.365,6.085,89.841)" gradientUnits="userSpaceOnUse"><stop offset="0%" stop-opacity="1" style="stop-color:rgb(0,0,0)"/><stop offset="100%" stop-opacity="0" style="stop-color:rgb(0,0,0)"/></radialGradient><rect x="6.085" y="89.841" width="7.399" height="37.365" transform="matrix(-1,0,0,-1,19.569,217.047)" fill="url(#_rgradient_0)"/></g><g opacity="0.3"><linearGradient id="_lgradient_0" x1="0" y1="0.5" x2="2.83276944882399e-16" y2="-0.5" gradientTransform="matrix(101.012,0,0,37.365,13.484,89.841)" gradientUnits="userSpaceOnUse"><stop offset="0%" stop-opacity="0" style="stop-color:rgb(0,0,0)"/><stop offset="50.002533119777645%" stop-opacity="1" style="stop-color:rgb(0,0,0)"/><stop offset="100%" stop-opacity="0.00005065982900465116" style="stop-color:rgb(0,0,0)"/></linearGradient><rect x="13.484" y="89.841" width="101.012" height="37.365" transform="matrix(1,0,0,1,0,0)" fill="url(#_lgradient_0)"/></g><g opacity="0.3"><radialGradient id="_rgradient_1" fx="0.000001182354502304861" fy="0.5000000748379718" cx="0.000001182354502304861" cy="0.5000000748379718" r="0.59203902" gradientTransform="matrix(7.399,0,0,37.365,114.516,89.841)" gradientUnits="userSpaceOnUse"><stop offset="0%" stop-opacity="1" style="stop-color:rgb(0,0,0)"/><stop offset="100%" stop-opacity="0" style="stop-color:rgb(0,0,0)"/></radialGradient><rect x="114.516" y="89.841" width="7.399" height="37.365" transform="matrix(-1,0,0,-1,236.431,217.047)" fill="url(#_rgradient_1)"/></g></g><linearGradient id="_lgradient_1" x1="0" y1="0.5" x2="0.00660865367666938" y2="1.4999781626098552" gradientTransform="matrix(102.762,0,0,89.441,12.619,29.363)" gradientUnits="userSpaceOnUse"><stop offset="2.601990682514047%" stop-opacity="1" style="stop-color:rgb(232,200,158)"/><stop offset="22.766487034877436%" stop-opacity="1" style="stop-color:rgb(215,178,130)"/><stop offset="26.470170038372753%" stop-opacity="1" style="stop-color:rgb(230,192,144)"/><stop offset="92.72494376756674%" stop-opacity="1" style="stop-color:rgb(159,122,74)"/></linearGradient><mask id="_mask_woOv2lB5EFFzfjAS1fiV4u93jGNRqTKz" x="-200%" y="-200%" width="400%" height="400%"><rect x="-200%" y="-200%" width="400%" height="400%" style="fill:white;"/><path d=" M 26.436 29.431 L 100.359 29.431 C 104.674 29.431 106.616 28.72 107.856 31.913 L 115.378 51.773 L 115.378 115.505 C 115.378 119.361 115.636 118.772 111.321 118.772 L 32.449 118.772 L 16.679 118.772 C 12.364 118.772 12.622 119.361 12.622 115.505 L 12.622 51.773 L 20.144 31.913 C 21.349 28.784 22.121 29.431 26.436 29.431 Z " fill="black" stroke="none"/></mask><linearGradient id="_lgradient_2" x1="0" y1="0.5" x2="6.123233995736766e-17" y2="-0.5"><stop offset="0%" stop-opacity="1" style="stop-color:rgb(157,118,68)"/><stop offset="24.601091477282566%" stop-opacity="1" style="stop-color:rgb(179,145,102)"/><stop offset="28.17943205579639%" stop-opacity="1" style="stop-color:rgb(191,143,85)"/><stop offset="100%" stop-opacity="1" style="stop-color:rgb(167,130,83)"/></linearGradient><path d=" M 26.436 29.431 L 100.359 29.431 C 104.674 29.431 106.616 28.72 107.856 31.913 L 115.378 51.773 L 115.378 115.505 C 115.378 119.361 115.636 118.772 111.321 118.772 L 32.449 118.772 L 16.679 118.772 C 12.364 118.772 12.622 119.361 12.622 115.505 L 12.622 51.773 L 20.144 31.913 C 21.349 28.784 22.121 29.431 26.436 29.431 Z " fill="url(#_lgradient_1)" mask="url(#_mask_woOv2lB5EFFzfjAS1fiV4u93jGNRqTKz)" vector-effect="non-scaling-stroke" stroke-width="3.714" stroke="url(#_lgradient_2)" stroke-linejoin="miter" stroke-linecap="round" stroke-miterlimit="4"/><path d=" M 26.436 29.431 L 100.359 29.431 C 104.674 29.431 106.616 28.72 107.856 31.913 L 115.378 51.773 L 115.378 115.505 C 115.378 119.361 115.636 118.772 111.321 118.772 L 32.449 118.772 L 16.679 118.772 C 12.364 118.772 12.622 119.361 12.622 115.505 L 12.622 51.773 L 20.144 31.913 C 21.349 28.784 22.121 29.431 26.436 29.431 Z " fill="url(#_lgradient_1)"/><radialGradient id="_rgradient_2" fx="0.5000000037037037" fy="0.49999991428571433" cx="0.5000000037037037" cy="0.49999991428571433" r="2.7" gradientTransform="matrix(100.884,0,0,65.388,13.558,52.477)" gradientUnits="userSpaceOnUse"><stop offset="0%" stop-opacity="1" style="stop-color:rgb(203,173,122)"/><stop offset="100%" stop-opacity="0" style="stop-color:rgb(203,174,125)"/></radialGradient><rect x="13.558" y="52.477" width="100.884" height="65.388" transform="matrix(1,0,0,1,0,0)" fill="url(#_rgradient_2)"/><g style="opacity:0.50549454;"><g opacity="0.50549454"><mask id="_mask_Y4yznANpwuMmqxW6mbjoOoKce66QHNJL" x="-200%" y="-200%" width="400%" height="400%"><rect x="-200%" y="-200%" width="400%" height="400%" style="fill:white;"/><path d=" M 28.786 31.946 L 98.085 31.946 C 102.131 31.946 104.634 33.327 106.329 37.124 L 112.165 53.06 L 112.165 110.514 C 112.165 114.14 110.113 115.966 106.068 115.966 L 21.531 115.966 C 17.485 115.966 15.835 113.958 15.835 110.332 L 15.835 53.06 L 21.483 36.782 C 22.613 33.84 24.74 31.946 28.786 31.946 Z " fill="black" stroke="none"/></mask><linearGradient id="_lgradient_3" x1="0" y1="0.5" x2="0.8139533602237955" y2="1.0809302259139149"><stop offset="55.060685773456065%" stop-opacity="0" style="stop-color:rgb(255,255,255)"/><stop offset="100%" stop-opacity="0" style="stop-color:rgb(255,255,255)"/></linearGradient><path d=" M 28.786 31.946 L 98.085 31.946 C 102.131 31.946 104.634 33.327 106.329 37.124 L 112.165 53.06 L 112.165 110.514 C 112.165 114.14 110.113 115.966 106.068 115.966 L 21.531 115.966 C 17.485 115.966 15.835 113.958 15.835 110.332 L 15.835 53.06 L 21.483 36.782 C 22.613 33.84 24.74 31.946 28.786 31.946 Z " fill="none" mask="url(#_mask_Y4yznANpwuMmqxW6mbjoOoKce66QHNJL)" vector-effect="non-scaling-stroke" stroke-width="2.772" stroke="url(#_lgradient_3)" stroke-linejoin="miter" stroke-linecap="butt" stroke-miterlimit="4"/><path d=" M 28.786 31.946 L 98.085 31.946 C 102.131 31.946 104.634 33.327 106.329 37.124 L 112.165 53.06 L 112.165 110.514 C 112.165 114.14 110.113 115.966 106.068 115.966 L 21.531 115.966 C 17.485 115.966 15.835 113.958 15.835 110.332 L 15.835 53.06 L 21.483 36.782 C 22.613 33.84 24.74 31.946 28.786 31.946 Z " fill="none"/></g></g><g style="opacity:0.3;"><g opacity="0.3"><mask id="_mask_N2qYFsifnJoZTDjQrg9OLnTXz3FKDQv4" x="-200%" y="-200%" width="400%" height="400%"><rect x="-200%" y="-200%" width="400%" height="400%" style="fill:white;"/><line x1="12.624" y1="51.542" x2="115.376" y2="51.542" fill="black" stroke="none"/></mask><linearGradient id="_lgradient_4" x1="0" y1="0.5" x2="1" y2="0.5"><stop offset="0%" stop-opacity="0.011907726756723025" style="stop-color:rgb(255,255,255)"/><stop offset="15.869296177590126%" stop-opacity="1" style="stop-color:rgb(255,255,255)"/><stop offset="84.04838539146984%" stop-opacity="1" style="stop-color:rgb(255,255,255)"/><stop offset="100%" stop-opacity="0.02381541367890805" style="stop-color:rgb(255,255,255)"/></linearGradient><line x1="12.624" y1="51.542" x2="115.376" y2="51.542" mask="url(#_mask_N2qYFsifnJoZTDjQrg9OLnTXz3FKDQv4)" vector-effect="non-scaling-stroke" stroke-width="3.736" stroke="url(#_lgradient_4)" stroke-linejoin="miter" stroke-linecap="square" stroke-miterlimit="4"/></g></g></g><g opacity="0.3"><path d=" M 46.06 72.285 L 82.06 72.285 C 85.384 72.285 88.06 74.961 88.06 78.285 C 88.06 81.609 85.384 84.285 82.06 84.285 L 46.06 84.285 C 42.736 84.285 40.06 81.609 40.06 78.285 C 40.06 74.961 42.736 72.285 46.06 72.285 Z " fill="rgb(255,255,255)"/></g><g opacity="0.8"><path d=" M 46.06 69.285 L 82.06 69.285 C 85.384 69.285 88.06 71.961 88.06 75.285 C 88.06 78.609 85.384 81.285 82.06 81.285 L 46.06 81.285 C 42.736 81.285 40.06 78.609 40.06 75.285 C 40.06 71.961 42.736 69.285 46.06 69.285 Z " fill="rgb(141,103,56)" fill-opacity="0.7372549"/></g><g opacity="0.1"><path d=" M 45.94 69.285 C 42.616 69.285 39.94 71.961 39.94 75.285 C 39.94 76.403 40.326 77.39 40.854 78.285 C 41.897 76.52 43.735 75.285 45.94 75.285 L 81.94 75.285 C 84.146 75.285 85.984 76.52 87.026 78.285 C 87.555 77.39 87.94 76.403 87.94 75.285 C 87.94 71.961 85.264 69.285 81.94 69.285 L 45.94 69.285 L 45.94 69.285 Z " fill="rgb(0,0,0)"/></g><g opacity="0.3"><path d=" M 42.126 35.855 L 85.218 35.855 C 89.197 35.855 92.4 37.566 92.4 39.693 C 92.4 41.819 89.197 43.531 85.218 43.531 L 42.126 43.531 C 38.147 43.531 34.944 41.819 34.944 39.693 C 34.944 37.566 38.147 35.855 42.126 35.855 Z " fill="rgb(255,255,255)"/></g><g opacity="0.8"><path d=" M 42.126 33.936 L 85.218 33.936 C 89.197 33.936 92.4 35.647 92.4 37.774 C 92.4 39.9 89.197 41.612 85.218 41.612 L 42.126 41.612 C 38.147 41.612 34.944 39.9 34.944 37.774 C 34.944 35.647 38.147 33.936 42.126 33.936 Z " fill="rgb(141,103,56)" fill-opacity="0.7372549"/></g><g opacity="0.1"><path d=" M 41.982 33.936 C 38.003 33.936 34.8 35.647 34.8 37.774 C 34.8 38.489 35.262 39.12 35.894 39.693 C 37.143 38.564 39.343 37.774 41.982 37.774 L 85.074 37.774 C 87.715 37.774 89.915 38.564 91.162 39.693 C 91.796 39.12 92.256 38.489 92.256 37.774 C 92.256 35.647 89.053 33.936 85.074 33.936 L 41.982 33.936 Z " fill="rgb(0,0,0)"/></g></g><clipPath id="_clipPath_qtCUsezEjugjhFcyFC6cmWsagfwHZFQk"><rect x="15" y="5" width="99" height="36.413" transform="matrix(1,0,0,1,0,0)" fill="rgb(255,255,255)"/></clipPath><g clip-path="url(#_clipPath_qtCUsezEjugjhFcyFC6cmWsagfwHZFQk)"><g><linearGradient id="_lgradient_5" x1="0.1464466094067262" y1="0.14644660940672627" x2="0.8535533905932737" y2="0.8535533905932737" gradientTransform="matrix(40.526,-11.014,11.308,42.805,38.513,13.02)" gradientUnits="userSpaceOnUse"><stop offset="0%" stop-opacity="1" style="stop-color:rgb(160,70,185)"/><stop offset="100%" stop-opacity="1" style="stop-color:rgb(87,34,202)"/></linearGradient><path d=" M 60.314 7.095 C 59.442 7.332 58.955 8.19 59.174 9.018 L 60.189 12.863 C 48.999 15.904 42.141 26.754 44.874 37.097 C 47.606 47.441 58.894 53.359 70.084 50.318 C 81.276 47.276 88.132 36.426 85.4 26.083 L 76.716 28.443 C 78.278 34.353 74.358 40.553 67.964 42.291 C 61.569 44.029 55.12 40.647 53.559 34.737 C 51.997 28.827 55.916 22.627 62.31 20.889 L 63.326 24.735 C 63.544 25.562 64.39 26.059 65.262 25.822 C 65.479 25.763 65.703 25.694 65.873 25.567 L 77.998 13.848 C 78.505 13.467 78.782 12.776 78.618 12.156 C 78.454 11.535 77.874 11.078 77.247 11.005 L 60.969 7.006 C 60.76 6.982 60.532 7.036 60.314 7.095 Z " fill="url(#_lgradient_5)"/><mask id="_mask_3cjBkklKGq0JJ5Lx0g5qThncX80QbFUI" x="-200%" y="-200%" width="400%" height="400%"><rect x="-200%" y="-200%" width="400%" height="400%" style="fill:white;"/><path d=" M 60.668 8.432 C 60.63 8.442 60.583 8.48 60.622 8.624 L 61.637 12.47 C 61.799 13.17 61.29 13.976 60.543 14.2 C 50.157 17.023 43.786 27.106 46.322 36.704 C 48.857 46.302 59.345 51.803 69.731 48.98 C 79.622 46.292 85.745 37.026 84.124 27.863 L 78.245 29.461 C 79.074 35.665 75.005 41.812 68.317 43.63 C 61.117 45.587 53.869 41.786 52.111 35.131 C 50.353 28.477 54.756 21.509 61.957 19.552 C 62.714 19.367 63.552 19.807 63.758 20.496 L 64.774 24.341 C 64.812 24.486 64.87 24.495 64.908 24.484 L 76.875 12.899 C 77.517 12.45 76.742 12.397 76.742 12.397 L 60.668 8.432 Z " fill="black" stroke="none"/></mask><linearGradient id="_lgradient_6" x1="0.1464466094067262" y1="0.14644660940672627" x2="0.8535533905932737" y2="0.8535533905932737"><stop offset="0%" stop-opacity="1" style="stop-color:rgb(97,39,200)"/><stop offset="100%" stop-opacity="1" style="stop-color:rgb(49,21,140)"/></linearGradient><path d=" M 60.668 8.432 C 60.63 8.442 60.583 8.48 60.622 8.624 L 61.637 12.47 C 61.799 13.17 61.29 13.976 60.543 14.2 C 50.157 17.023 43.786 27.106 46.322 36.704 C 48.857 46.302 59.345 51.803 69.731 48.98 C 79.622 46.292 85.745 37.026 84.124 27.863 L 78.245 29.461 C 79.074 35.665 75.005 41.812 68.317 43.63 C 61.117 45.587 53.869 41.786 52.111 35.131 C 50.353 28.477 54.756 21.509 61.957 19.552 C 62.714 19.367 63.552 19.807 63.758 20.496 L 64.774 24.341 C 64.812 24.486 64.87 24.495 64.908 24.484 L 76.875 12.899 C 77.517 12.45 76.742 12.397 76.742 12.397 L 60.668 8.432 Z " fill="none" mask="url(#_mask_3cjBkklKGq0JJ5Lx0g5qThncX80QbFUI)" vector-effect="non-scaling-stroke" stroke-width="4" stroke="url(#_lgradient_6)" stroke-opacity="100" stroke-linejoin="round" stroke-linecap="round" stroke-miterlimit="4"/><path d=" M 60.668 8.432 C 60.63 8.442 60.583 8.48 60.622 8.624 L 61.637 12.47 C 61.799 13.17 61.29 13.976 60.543 14.2 C 50.157 17.023 43.786 27.106 46.322 36.704 C 48.857 46.302 59.345 51.803 69.731 48.98 C 79.622 46.292 85.745 37.026 84.124 27.863 L 78.245 29.461 C 79.074 35.665 75.005 41.812 68.317 43.63 C 61.117 45.587 53.869 41.786 52.111 35.131 C 50.353 28.477 54.756 21.509 61.957 19.552 C 62.714 19.367 63.552 19.807 63.758 20.496 L 64.774 24.341 C 64.812 24.486 64.87 24.495 64.908 24.484 L 76.875 12.899 C 77.517 12.45 76.742 12.397 76.742 12.397 L 60.668 8.432 Z " fill="none"/></g></g></g></g></svg>