<?xml version="1.0" encoding="UTF-8" standalone="no"?><!DOCTYPE svg PUBLIC "-//W3C//DTD SVG 1.1//EN" "http://www.w3.org/Graphics/SVG/1.1/DTD/svg11.dtd"><svg width="100%" height="100%" viewBox="0 0 128 128" version="1.1" xmlns="http://www.w3.org/2000/svg" xmlns:xlink="http://www.w3.org/1999/xlink" xml:space="preserve" xmlns:serif="http://www.serif.com/" style="fill-rule:evenodd;clip-rule:evenodd;stroke-linecap:round;stroke-linejoin:round;"><rect x="0" y="0" width="128" height="128" style="fill:none;"/><g><g><path d="M118.851,117.854c-0.005,3.287 -24.8,5.992 -54.931,5.992c-30.131,0 -54.926,-2.705 -54.931,-5.992l0,-0.001c0,-3.287 24.797,-5.992 54.931,-5.992c30.135,0 54.931,2.705 54.931,5.992l0,0.001Z" style="fill:url(#_Radial1);fill-rule:nonzero;"/><g opacity="0.4"><rect x="103.66" y="115.857" width="14.193" height="4.994" style="fill:url(#_Radial2);"/><rect x="9.988" y="115.857" width="14.193" height="4.994" style="fill:url(#_Radial3);"/><rect x="24.18" y="115.857" width="79.48" height="4.994" style="fill:url(#_Linear4);"/></g><path d="M114.857,20.474c0,-2.48 -2.014,-4.494 -4.495,-4.494l-92.884,0c-2.48,0 -4.494,2.014 -4.494,4.494l0,92.884c0,2.481 2.014,4.495 4.494,4.495l92.884,0c2.481,0 4.495,-2.014 4.495,-4.495l0,-92.884Z" style="fill:url(#_Radial5);"/><path d="M114.357,20.476c0,-2.205 -1.79,-3.995 -3.995,-3.995l-92.884,0c-2.205,0 -3.995,1.79 -3.995,3.995l0,92.884c0,2.205 1.79,3.995 3.995,3.995l92.884,0c2.205,0 3.995,-1.79 3.995,-3.995l0,-92.884Z" style="fill:none;stroke:url(#_Linear6);stroke-width:2px;"/><path d="M114.357,20.476c0,-2.205 -1.79,-3.995 -3.995,-3.995l-92.884,0c-2.205,0 -3.995,1.79 -3.995,3.995l0,92.884c0,2.205 1.79,3.995 3.995,3.995l92.884,0c2.205,0 3.995,-1.79 3.995,-3.995l0,-92.884Z" style="fill:none;"/><path d="M115.356,20.476c0,-2.756 -2.238,-4.994 -4.994,-4.994l-92.884,0c-2.756,0 -4.994,2.238 -4.994,4.994l0,92.884c0,2.756 2.238,4.994 4.994,4.994l92.884,0c2.756,0 4.994,-2.238 4.994,-4.994l0,-92.884Z" style="fill:none;stroke:#000;stroke-opacity:0.25;stroke-width:2px;stroke-linecap:butt;stroke-linejoin:miter;"/><path d="M115.356,20.476c0,-2.756 -2.238,-4.994 -4.994,-4.994l-92.884,0c-2.756,0 -4.994,2.238 -4.994,4.994l0,92.884c0,2.756 2.238,4.994 4.994,4.994l92.884,0c2.756,0 4.994,-2.238 4.994,-4.994l0,-92.884Z" style="fill:none;"/></g><path d="M42.386,76.389l0,7.683c0,1.758 0.505,3.035 1.514,3.828c1.009,0.793 2.487,1.207 4.436,1.241l0,3.622c-3.277,-0.035 -5.811,-0.785 -7.605,-2.251c-1.793,-1.465 -2.69,-3.526 -2.69,-6.182l0,-7.837c0,-1.793 -0.543,-3.074 -1.63,-3.841c-1.086,-0.768 -2.664,-1.151 -4.733,-1.151l0,-3.647c2.242,-0.035 3.863,-0.449 4.863,-1.242c1,-0.793 1.5,-2.018 1.5,-3.673l0,-7.915c0,-2.673 0.931,-4.751 2.794,-6.234c1.862,-1.483 4.362,-2.224 7.501,-2.224l0,3.595c-3.966,0.104 -5.95,1.819 -5.95,5.147l0,7.631c0,3.708 -1.922,5.898 -5.768,6.57l0,0.31c3.846,0.673 5.768,2.863 5.768,6.57Z" style="fill:#097bcc;fill-rule:nonzero;"/><path d="M76.452,87.019l-21.081,0l0,-37.816l4.398,0l0,33.832l16.683,0l0,3.984Z" style="fill:#0f8ce6;fill-rule:nonzero;"/><path d="M91.17,69.819l0,-0.31c-3.845,-0.672 -5.768,-2.862 -5.768,-6.57l0,-7.631c0,-3.328 -1.957,-5.043 -5.872,-5.147l0,-3.595c3.173,0 5.669,0.75 7.488,2.25c1.82,1.5 2.729,3.57 2.729,6.208l0,7.915c0,1.673 0.509,2.901 1.526,3.686c1.018,0.785 2.647,1.194 4.889,1.229l0,3.647c-2.104,0 -3.699,0.383 -4.785,1.151c-1.086,0.767 -1.63,2.048 -1.63,3.841l0,7.837c0,2.639 -0.883,4.695 -2.651,6.169c-1.767,1.475 -4.289,2.229 -7.566,2.264l0,-3.622c1.914,-0.034 3.371,-0.448 4.372,-1.241c1,-0.793 1.5,-2.07 1.5,-3.828l0,-7.683c0,-1.965 0.474,-3.466 1.423,-4.5c0.948,-1.035 2.396,-1.725 4.345,-2.07Z" style="fill:#097bcc;fill-rule:nonzero;"/></g><defs><radialGradient id="_Radial1" cx="0" cy="0" r="1" gradientUnits="userSpaceOnUse" gradientTransform="matrix(109.863,0,0,11.985,63.9202,117.854)"><stop offset="0" style="stop-color:#000;stop-opacity:0.2"/><stop offset="1" style="stop-color:#000;stop-opacity:0"/></radialGradient><radialGradient id="_Radial2" cx="0" cy="0" r="1" gradientUnits="userSpaceOnUse" gradientTransform="matrix(14.1929,0,0,4.99368,103.64,118.354)"><stop offset="0" style="stop-color:#181818;stop-opacity:0.4"/><stop offset="1" style="stop-color:#181818;stop-opacity:0"/></radialGradient><radialGradient id="_Radial3" cx="0" cy="0" r="1" gradientUnits="userSpaceOnUse" gradientTransform="matrix(14.1929,0,0,4.99368,24.2001,118.354)"><stop offset="0" style="stop-color:#181818;stop-opacity:0.4"/><stop offset="1" style="stop-color:#181818;stop-opacity:0"/></radialGradient><linearGradient id="_Linear4" x1="0" y1="0" x2="1" y2="0" gradientUnits="userSpaceOnUse" gradientTransform="matrix(1.36668e-14,-5.01393,5.01393,1.36668e-14,66.9236,120.871)"><stop offset="0" style="stop-color:#181818;stop-opacity:0"/><stop offset="0.5" style="stop-color:#181818;stop-opacity:0.4"/><stop offset="1" style="stop-color:#181818;stop-opacity:0"/></linearGradient><radialGradient id="_Radial5" cx="0" cy="0" r="1" gradientUnits="userSpaceOnUse" gradientTransform="matrix(101.873,0,0,101.873,63.9202,15.6872)"><stop offset="0" style="stop-color:#fafafa;stop-opacity:1"/><stop offset="1" style="stop-color:#e1e1e1;stop-opacity:1"/></radialGradient><linearGradient id="_Linear6" x1="0" y1="0" x2="1" y2="0" gradientUnits="userSpaceOnUse" gradientTransform="matrix(-3.82038e-17,0.237568,-0.237568,-3.82038e-17,0.11985,0.000587641)"><stop offset="0" style="stop-color:#fff;stop-opacity:1"/><stop offset="0.03" style="stop-color:#fff;stop-opacity:0.23"/><stop offset="0.96" style="stop-color:#fff;stop-opacity:0.16"/><stop offset="1" style="stop-color:#fff;stop-opacity:0.39"/></linearGradient></defs></svg>