<?xml version="1.0" encoding="UTF-8" standalone="no"?><!-- Generator: Gravit.io --><svg xmlns="http://www.w3.org/2000/svg" xmlns:xlink="http://www.w3.org/1999/xlink" style="isolation:isolate" viewBox="0 0 16 16" width="16pt" height="16pt"><defs><clipPath id="_clipPath_cAmr0YwneyWO0xkCFDeHCQrgAAr4fYTB"><rect width="16" height="16"/></clipPath></defs><g clip-path="url(#_clipPath_cAmr0YwneyWO0xkCFDeHCQrgAAr4fYTB)"><clipPath id="_clipPath_KbKFi8Bt2Fi6O0jinOydMpV5LcA4bsun"><rect x="0" y="0" width="16" height="16" transform="matrix(1,0,0,1,0,0)" fill="rgb(255,255,255)"/></clipPath><g clip-path="url(#_clipPath_KbKFi8Bt2Fi6O0jinOydMpV5LcA4bsun)"><g><g><g style="opacity:0.3;"><g opacity="0.3"><radialGradient id="_rgradient_15" fx="5.742864719326946e-7" fy="0.5000000748379718" cx="5.742864719326946e-7" cy="0.5000000748379718" r="0.59203902" gradientTransform="matrix(0.925,0,0,4.671,0.761,11.23)" gradientUnits="userSpaceOnUse"><stop offset="0%" stop-opacity="1" style="stop-color:rgb(0,0,0)"/><stop offset="100%" stop-opacity="0" style="stop-color:rgb(0,0,0)"/></radialGradient><rect x="0.761" y="11.23" width="0.925" height="4.671" transform="matrix(-1,0,0,-1,2.446,27.131)" fill="url(#_rgradient_15)"/></g><g opacity="0.3"><linearGradient id="_lgradient_35" x1="0" y1="0.5" x2="2.83276944882399e-16" y2="-0.5" gradientTransform="matrix(12.627,0,0,4.671,1.685,11.23)" gradientUnits="userSpaceOnUse"><stop offset="0%" stop-opacity="0" style="stop-color:rgb(0,0,0)"/><stop offset="50.002533119777645%" stop-opacity="1" style="stop-color:rgb(0,0,0)"/><stop offset="100%" stop-opacity="0.00005065982900465116" style="stop-color:rgb(0,0,0)"/></linearGradient><rect x="1.685" y="11.23" width="12.627" height="4.671" transform="matrix(1,0,0,1,0,0)" fill="url(#_lgradient_35)"/></g><g opacity="0.3"><radialGradient id="_rgradient_16" fx="0.000001182354502304861" fy="0.5000000748379718" cx="0.000001182354502304861" cy="0.5000000748379718" r="0.59203902" gradientTransform="matrix(0.925,0,0,4.671,14.314,11.23)" gradientUnits="userSpaceOnUse"><stop offset="0%" stop-opacity="1" style="stop-color:rgb(0,0,0)"/><stop offset="100%" stop-opacity="0" style="stop-color:rgb(0,0,0)"/></radialGradient><rect x="14.314" y="11.23" width="0.925" height="4.671" transform="matrix(-1,0,0,-1,29.554,27.131)" fill="url(#_rgradient_16)"/></g></g><linearGradient id="_lgradient_36" x1="0" y1="0.5" x2="0.00660865367666938" y2="1.4999781626098552" gradientTransform="matrix(12.845,0,0,11.18,1.577,3.67)" gradientUnits="userSpaceOnUse"><stop offset="2.601990682514047%" stop-opacity="1" style="stop-color:rgb(232,200,158)"/><stop offset="22.766487034877436%" stop-opacity="1" style="stop-color:rgb(215,178,130)"/><stop offset="26.470170038372753%" stop-opacity="1" style="stop-color:rgb(230,192,144)"/><stop offset="92.72494376756674%" stop-opacity="1" style="stop-color:rgb(159,122,74)"/></linearGradient><mask id="_mask_uYGbzKifDEqnpZ86S43cglZSSnXqGWi8" x="-200%" y="-200%" width="400%" height="400%"><rect x="-200%" y="-200%" width="400%" height="400%" style="fill:white;"/><path d=" M 3.305 3.679 L 12.545 3.679 C 13.084 3.679 13.327 3.59 13.482 3.989 L 14.422 6.472 L 14.422 14.438 C 14.422 14.92 14.455 14.847 13.915 14.847 L 4.056 14.847 L 2.085 14.847 C 1.546 14.847 1.578 14.92 1.578 14.438 L 1.578 6.472 L 2.518 3.989 C 2.669 3.598 2.765 3.679 3.305 3.679 Z " fill="black" stroke="none"/></mask><linearGradient id="_lgradient_37" x1="0" y1="0.5" x2="6.123233995736766e-17" y2="-0.5"><stop offset="0%" stop-opacity="1" style="stop-color:rgb(157,118,68)"/><stop offset="24.601091477282566%" stop-opacity="1" style="stop-color:rgb(179,145,102)"/><stop offset="28.17943205579639%" stop-opacity="1" style="stop-color:rgb(191,143,85)"/><stop offset="100%" stop-opacity="1" style="stop-color:rgb(167,130,83)"/></linearGradient><path d=" M 3.305 3.679 L 12.545 3.679 C 13.084 3.679 13.327 3.59 13.482 3.989 L 14.422 6.472 L 14.422 14.438 C 14.422 14.92 14.455 14.847 13.915 14.847 L 4.056 14.847 L 2.085 14.847 C 1.546 14.847 1.578 14.92 1.578 14.438 L 1.578 6.472 L 2.518 3.989 C 2.669 3.598 2.765 3.679 3.305 3.679 Z " fill="url(#_lgradient_36)" mask="url(#_mask_uYGbzKifDEqnpZ86S43cglZSSnXqGWi8)" vector-effect="non-scaling-stroke" stroke-width="0.4" stroke="url(#_lgradient_37)" stroke-linejoin="miter" stroke-linecap="round" stroke-miterlimit="4"/><path d=" M 3.305 3.679 L 12.545 3.679 C 13.084 3.679 13.327 3.59 13.482 3.989 L 14.422 6.472 L 14.422 14.438 C 14.422 14.92 14.455 14.847 13.915 14.847 L 4.056 14.847 L 2.085 14.847 C 1.546 14.847 1.578 14.92 1.578 14.438 L 1.578 6.472 L 2.518 3.989 C 2.669 3.598 2.765 3.679 3.305 3.679 Z " fill="url(#_lgradient_36)"/><radialGradient id="_rgradient_17" fx="0.5000000037037037" fy="0.49999991428571433" cx="0.5000000037037037" cy="0.49999991428571433" r="2.7" gradientTransform="matrix(12.61,0,0,8.174,1.695,6.56)" gradientUnits="userSpaceOnUse"><stop offset="0%" stop-opacity="1" style="stop-color:rgb(203,173,122)"/><stop offset="100%" stop-opacity="0" style="stop-color:rgb(203,174,125)"/></radialGradient><rect x="1.695" y="6.56" width="12.61" height="8.174" transform="matrix(1,0,0,1,0,0)" fill="url(#_rgradient_17)"/><g style="opacity:0.50549454;"><g opacity="0.50549454"><path d=" M 3.598 3.993 L 12.261 3.993 C 12.766 3.993 13.079 4.166 13.291 4.641 L 14.021 6.633 L 14.021 13.814 C 14.021 14.268 13.764 14.496 13.259 14.496 L 2.691 14.496 C 2.186 14.496 1.979 14.245 1.979 13.792 L 1.979 6.633 L 2.685 4.598 C 2.827 4.23 3.093 3.993 3.598 3.993 Z " fill="none"/></g></g><g style="opacity:0.3;"><g opacity="0.3"><mask id="_mask_wYbjlkcmtRBqiu2ginjC3XJsCLJkjlmM" x="-200%" y="-200%" width="400%" height="400%"><rect x="-200%" y="-200%" width="400%" height="400%" style="fill:white;"/><line x1="1.578" y1="6.443" x2="14.422" y2="6.443" fill="black" stroke="none"/></mask><linearGradient id="_lgradient_38" x1="0" y1="0.5" x2="1" y2="0.5"><stop offset="0%" stop-opacity="0.011907726756723025" style="stop-color:rgb(255,255,255)"/><stop offset="15.869296177590126%" stop-opacity="1" style="stop-color:rgb(255,255,255)"/><stop offset="84.04838539146984%" stop-opacity="1" style="stop-color:rgb(255,255,255)"/><stop offset="100%" stop-opacity="0.02381541367890805" style="stop-color:rgb(255,255,255)"/></linearGradient><line x1="1.578" y1="6.443" x2="14.422" y2="6.443" mask="url(#_mask_wYbjlkcmtRBqiu2ginjC3XJsCLJkjlmM)" vector-effect="non-scaling-stroke" stroke-width="3.736" stroke="url(#_lgradient_38)" stroke-linejoin="miter" stroke-linecap="square" stroke-miterlimit="4"/></g></g></g><g opacity="0.3"><path d=" M 5.758 9.036 L 10.258 9.036 C 10.673 9.036 11.008 9.37 11.008 9.786 C 11.008 10.201 10.673 10.536 10.258 10.536 L 5.758 10.536 C 5.342 10.536 5.008 10.201 5.008 9.786 C 5.008 9.37 5.342 9.036 5.758 9.036 Z " fill="rgb(255,255,255)"/></g><g opacity="0.8"><path d=" M 5.758 8.661 L 10.258 8.661 C 10.673 8.661 11.008 8.995 11.008 9.411 C 11.008 9.826 10.673 10.161 10.258 10.161 L 5.758 10.161 C 5.342 10.161 5.008 9.826 5.008 9.411 C 5.008 8.995 5.342 8.661 5.758 8.661 Z " fill="rgb(141,103,56)" fill-opacity="0.7372549"/></g><g opacity="0.1"><path d=" M 5.743 8.661 C 5.327 8.661 4.993 8.995 4.993 9.411 C 4.993 9.55 5.041 9.674 5.107 9.786 C 5.237 9.565 5.467 9.411 5.743 9.411 L 10.243 9.411 C 10.518 9.411 10.748 9.565 10.878 9.786 C 10.944 9.674 10.993 9.55 10.993 9.411 C 10.993 8.995 10.658 8.661 10.243 8.661 L 5.743 8.661 Z " fill="rgb(0,0,0)"/></g><g opacity="0.3"><path d=" M 5.266 4.482 L 10.652 4.482 C 11.15 4.482 11.55 4.696 11.55 4.962 C 11.55 5.227 11.15 5.441 10.652 5.441 L 5.266 5.441 C 4.768 5.441 4.368 5.227 4.368 4.962 C 4.368 4.696 4.768 4.482 5.266 4.482 Z " fill="rgb(255,255,255)"/></g><g opacity="0.8"><path d=" M 5.266 4.242 L 10.652 4.242 C 11.15 4.242 11.55 4.456 11.55 4.722 C 11.55 4.988 11.15 5.201 10.652 5.201 L 5.266 5.201 C 4.768 5.201 4.368 4.988 4.368 4.722 C 4.368 4.456 4.768 4.242 5.266 4.242 Z " fill="rgb(141,103,56)" fill-opacity="0.7372549"/></g><g opacity="0.1"><path d=" M 5.248 4.242 C 4.75 4.242 4.35 4.456 4.35 4.722 C 4.35 4.811 4.408 4.89 4.487 4.962 C 4.643 4.82 4.918 4.722 5.248 4.722 L 10.634 4.722 C 10.964 4.722 11.239 4.82 11.395 4.962 C 11.474 4.89 11.532 4.811 11.532 4.722 C 11.532 4.456 11.132 4.242 10.634 4.242 L 5.248 4.242 Z " fill="rgb(0,0,0)"/></g></g><clipPath id="_clipPath_GECAr5aK6xlV5EXjaIMFNkExAgO3Nrdi"><rect x="1.875" y="0.625" width="12.375" height="4.552" transform="matrix(1,0,0,1,0,0)" fill="rgb(255,255,255)"/></clipPath><g clip-path="url(#_clipPath_GECAr5aK6xlV5EXjaIMFNkExAgO3Nrdi)"><g><linearGradient id="_lgradient_39" x1="0.1464466094067262" y1="0.14644660940672627" x2="0.8535533905932737" y2="0.8535533905932737" gradientTransform="matrix(5.066,-1.377,1.414,5.351,4.814,1.627)" gradientUnits="userSpaceOnUse"><stop offset="0%" stop-opacity="1" style="stop-color:rgb(160,70,185)"/><stop offset="100%" stop-opacity="1" style="stop-color:rgb(87,34,202)"/></linearGradient><path d=" M 7.539 0.887 C 7.43 0.916 7.369 1.024 7.397 1.127 L 7.524 1.608 C 6.125 1.988 5.268 3.344 5.609 4.637 C 5.951 5.93 7.362 6.67 8.761 6.29 C 10.159 5.909 11.017 4.553 10.675 3.26 L 9.59 3.555 C 9.785 4.294 9.295 5.069 8.495 5.286 C 7.696 5.504 6.89 5.081 6.695 4.342 C 6.5 3.603 6.989 2.828 7.789 2.611 L 7.916 3.092 C 7.943 3.195 8.049 3.257 8.158 3.228 C 8.185 3.22 8.213 3.212 8.234 3.196 L 9.75 1.731 C 9.813 1.683 9.848 1.597 9.827 1.519 C 9.807 1.442 9.734 1.385 9.656 1.376 L 7.621 0.876 C 7.595 0.873 7.566 0.879 7.539 0.887 Z " fill="url(#_lgradient_39)"/><mask id="_mask_2pz4E2zr5pSHvqNCpbhOGsrGHDQe9pGN" x="-200%" y="-200%" width="400%" height="400%"><rect x="-200%" y="-200%" width="400%" height="400%" style="fill:white;"/><path d=" M 7.583 1.054 C 7.579 1.055 7.573 1.06 7.578 1.078 L 7.705 1.559 C 7.725 1.646 7.661 1.747 7.568 1.775 C 6.27 2.128 5.473 3.388 5.79 4.588 C 6.107 5.788 7.418 6.475 8.716 6.123 C 9.953 5.787 10.718 4.628 10.516 3.483 L 9.781 3.683 C 9.884 4.458 9.376 5.227 8.54 5.454 C 7.64 5.698 6.734 5.223 6.514 4.391 C 6.294 3.56 6.844 2.689 7.745 2.444 C 7.839 2.421 7.944 2.476 7.97 2.562 L 8.097 3.043 C 8.101 3.061 8.109 3.062 8.114 3.061 L 9.609 1.612 C 9.69 1.556 9.593 1.55 9.593 1.55 L 7.583 1.054 Z " fill="black" stroke="none"/></mask><linearGradient id="_lgradient_40" x1="0.1464466094067262" y1="0.14644660940672627" x2="0.8535533905932737" y2="0.8535533905932737"><stop offset="0%" stop-opacity="1" style="stop-color:rgb(97,39,200)"/><stop offset="100%" stop-opacity="1" style="stop-color:rgb(49,21,140)"/></linearGradient><path d=" M 7.583 1.054 C 7.579 1.055 7.573 1.06 7.578 1.078 L 7.705 1.559 C 7.725 1.646 7.661 1.747 7.568 1.775 C 6.27 2.128 5.473 3.388 5.79 4.588 C 6.107 5.788 7.418 6.475 8.716 6.123 C 9.953 5.787 10.718 4.628 10.516 3.483 L 9.781 3.683 C 9.884 4.458 9.376 5.227 8.54 5.454 C 7.64 5.698 6.734 5.223 6.514 4.391 C 6.294 3.56 6.844 2.689 7.745 2.444 C 7.839 2.421 7.944 2.476 7.97 2.562 L 8.097 3.043 C 8.101 3.061 8.109 3.062 8.114 3.061 L 9.609 1.612 C 9.69 1.556 9.593 1.55 9.593 1.55 L 7.583 1.054 Z " fill="none" mask="url(#_mask_2pz4E2zr5pSHvqNCpbhOGsrGHDQe9pGN)" vector-effect="non-scaling-stroke" stroke-width="0.4" stroke="url(#_lgradient_40)" stroke-opacity="100" stroke-linejoin="round" stroke-linecap="round" stroke-miterlimit="4"/><path d=" M 7.583 1.054 C 7.579 1.055 7.573 1.06 7.578 1.078 L 7.705 1.559 C 7.725 1.646 7.661 1.747 7.568 1.775 C 6.27 2.128 5.473 3.388 5.79 4.588 C 6.107 5.788 7.418 6.475 8.716 6.123 C 9.953 5.787 10.718 4.628 10.516 3.483 L 9.781 3.683 C 9.884 4.458 9.376 5.227 8.54 5.454 C 7.64 5.698 6.734 5.223 6.514 4.391 C 6.294 3.56 6.844 2.689 7.745 2.444 C 7.839 2.421 7.944 2.476 7.97 2.562 L 8.097 3.043 C 8.101 3.061 8.109 3.062 8.114 3.061 L 9.609 1.612 C 9.69 1.556 9.593 1.55 9.593 1.55 L 7.583 1.054 Z " fill="none"/></g></g></g></g></svg>