<?xml version="1.0" encoding="UTF-8" standalone="no"?><!DOCTYPE svg PUBLIC "-//W3C//DTD SVG 1.1//EN" "http://www.w3.org/Graphics/SVG/1.1/DTD/svg11.dtd"><svg width="100%" height="100%" viewBox="0 0 16 16" version="1.1" xmlns="http://www.w3.org/2000/svg" xmlns:xlink="http://www.w3.org/1999/xlink" xml:space="preserve" xmlns:serif="http://www.serif.com/" style="fill-rule:evenodd;clip-rule:evenodd;stroke-linecap:round;stroke-linejoin:round;"><rect x="0" y="0" width="16" height="16" style="fill:none;"/><g><g><path d="M14.856,14.732c0,0.411 -3.1,0.749 -6.866,0.749c-3.766,0 -6.866,-0.338 -6.866,-0.749l0,0c0,-0.411 3.099,-0.749 6.866,-0.749c3.767,0 6.866,0.338 6.866,0.749l0,0Z" style="fill:url(#_Radial1);fill-rule:nonzero;"/><g opacity="0.4"><rect x="12.957" y="14.482" width="1.774" height="0.624" style="fill:url(#_Radial2);"/><rect x="1.248" y="14.482" width="1.774" height="0.624" style="fill:url(#_Radial3);"/><rect x="3.023" y="14.482" width="9.935" height="0.624" style="fill:url(#_Linear4);"/></g><path d="M14.357,2.559c0,-0.31 -0.252,-0.561 -0.562,-0.561l-11.61,0c-0.31,0 -0.562,0.251 -0.562,0.561l0,11.611c0,0.31 0.252,0.562 0.562,0.562l11.61,0c0.31,0 0.562,-0.252 0.562,-0.562l0,-11.611Z" style="fill:url(#_Radial5);"/><path d="M14.295,2.56c0,-0.276 -0.224,-0.5 -0.5,-0.5l-11.61,0c-0.276,0 -0.5,0.224 -0.5,0.5l0,11.61c0,0.276 0.224,0.499 0.5,0.499l11.61,0c0.276,0 0.5,-0.223 0.5,-0.499l0,-11.61Z" style="fill:none;stroke:url(#_Linear6);stroke-width:0.25px;"/><path d="M14.295,2.56c0,-0.276 -0.224,-0.5 -0.5,-0.5l-11.61,0c-0.276,0 -0.5,0.224 -0.5,0.5l0,11.61c0,0.276 0.224,0.499 0.5,0.499l11.61,0c0.276,0 0.5,-0.223 0.5,-0.499l0,-11.61Z" style="fill:none;"/><path d="M14.419,2.56c0,-0.345 -0.279,-0.625 -0.624,-0.625l-11.61,0c-0.345,0 -0.624,0.28 -0.624,0.625l0,11.61c0,0.345 0.279,0.624 0.624,0.624l11.61,0c0.345,0 0.624,-0.279 0.624,-0.624l0,-11.61Z" style="fill:none;stroke:#000;stroke-opacity:0.25;stroke-width:0.25px;stroke-linecap:butt;stroke-linejoin:miter;"/><path d="M14.419,2.56c0,-0.345 -0.279,-0.625 -0.624,-0.625l-11.61,0c-0.345,0 -0.624,0.28 -0.624,0.625l0,11.61c0,0.345 0.279,0.624 0.624,0.624l11.61,0c0.345,0 0.624,-0.279 0.624,-0.624l0,-11.61Z" style="fill:none;"/></g><path d="M5.298,9.549l0,0.96c0,0.22 0.063,0.379 0.189,0.478c0.127,0.1 0.311,0.151 0.555,0.156l0,0.452c-0.41,-0.004 -0.726,-0.098 -0.951,-0.281c-0.224,-0.183 -0.336,-0.441 -0.336,-0.773l0,-0.979c0,-0.225 -0.068,-0.385 -0.204,-0.481c-0.135,-0.095 -0.333,-0.143 -0.591,-0.143l0,-0.456c0.28,-0.005 0.483,-0.056 0.608,-0.155c0.125,-0.1 0.187,-0.253 0.187,-0.46l0,-0.989c0,-0.334 0.117,-0.594 0.349,-0.779c0.233,-0.186 0.546,-0.278 0.938,-0.278l0,0.449c-0.496,0.013 -0.744,0.228 -0.744,0.644l0,0.953c0,0.464 -0.24,0.738 -0.721,0.822l0,0.038c0.481,0.084 0.721,0.358 0.721,0.822Z" style="fill:#097bcc;fill-rule:nonzero;"/><path d="M9.557,10.877l-2.636,0l0,-4.727l0.55,0l0,4.229l2.086,0l0,0.498Z" style="fill:#0f8ce6;fill-rule:nonzero;"/><path d="M11.396,8.727l0,-0.038c-0.48,-0.084 -0.721,-0.358 -0.721,-0.822l0,-0.953c0,-0.416 -0.244,-0.631 -0.734,-0.644l0,-0.449c0.397,0 0.709,0.093 0.936,0.281c0.228,0.188 0.341,0.446 0.341,0.776l0,0.989c0,0.209 0.064,0.363 0.191,0.461c0.127,0.098 0.331,0.149 0.611,0.154l0,0.456c-0.263,0 -0.462,0.048 -0.598,0.143c-0.136,0.096 -0.204,0.256 -0.204,0.481l0,0.979c0,0.33 -0.11,0.587 -0.331,0.771c-0.221,0.185 -0.536,0.279 -0.946,0.283l0,-0.452c0.24,-0.005 0.422,-0.056 0.547,-0.156c0.125,-0.099 0.187,-0.258 0.187,-0.478l0,-0.96c0,-0.246 0.06,-0.434 0.178,-0.563c0.119,-0.129 0.3,-0.215 0.543,-0.259Z" style="fill:#097bcc;fill-rule:nonzero;"/></g><defs><radialGradient id="_Radial1" cx="0" cy="0" r="1" gradientUnits="userSpaceOnUse" gradientTransform="matrix(13.7328,0,0,1.49813,7.99002,14.7318)"><stop offset="0" style="stop-color:#000;stop-opacity:0.2"/><stop offset="1" style="stop-color:#000;stop-opacity:0"/></radialGradient><radialGradient id="_Radial2" cx="0" cy="0" r="1" gradientUnits="userSpaceOnUse" gradientTransform="matrix(1.77411,0,0,0.62421,12.955,14.7942)"><stop offset="0" style="stop-color:#181818;stop-opacity:0.4"/><stop offset="1" style="stop-color:#181818;stop-opacity:0"/></radialGradient><radialGradient id="_Radial3" cx="0" cy="0" r="1" gradientUnits="userSpaceOnUse" gradientTransform="matrix(1.77411,0,0,0.62421,3.02502,14.7942)"><stop offset="0" style="stop-color:#181818;stop-opacity:0.4"/><stop offset="1" style="stop-color:#181818;stop-opacity:0"/></radialGradient><linearGradient id="_Linear4" x1="0" y1="0" x2="1" y2="0" gradientUnits="userSpaceOnUse" gradientTransform="matrix(1.70835e-15,-0.626742,0.626742,1.70835e-15,8.36545,15.1088)"><stop offset="0" style="stop-color:#181818;stop-opacity:0"/><stop offset="0.5" style="stop-color:#181818;stop-opacity:0.4"/><stop offset="1" style="stop-color:#181818;stop-opacity:0"/></linearGradient><radialGradient id="_Radial5" cx="0" cy="0" r="1" gradientUnits="userSpaceOnUse" gradientTransform="matrix(12.7341,0,0,12.7341,7.99002,1.9609)"><stop offset="0" style="stop-color:#fafafa;stop-opacity:1"/><stop offset="1" style="stop-color:#e1e1e1;stop-opacity:1"/></radialGradient><linearGradient id="_Linear6" x1="0" y1="0" x2="1" y2="0" gradientUnits="userSpaceOnUse" gradientTransform="matrix(-4.77548e-18,0.029696,-0.029696,-4.77548e-18,0.0149813,7.34552e-05)"><stop offset="0" style="stop-color:#fff;stop-opacity:1"/><stop offset="0.03" style="stop-color:#fff;stop-opacity:0.23"/><stop offset="0.96" style="stop-color:#fff;stop-opacity:0.16"/><stop offset="1" style="stop-color:#fff;stop-opacity:0.39"/></linearGradient></defs></svg>