<?xml version="1.0" encoding="UTF-8" standalone="no"?><!DOCTYPE svg PUBLIC "-//W3C//DTD SVG 1.1//EN" "http://www.w3.org/Graphics/SVG/1.1/DTD/svg11.dtd"><svg width="100%" height="100%" viewBox="0 0 32 32" version="1.1" xmlns="http://www.w3.org/2000/svg" xmlns:xlink="http://www.w3.org/1999/xlink" xml:space="preserve" xmlns:serif="http://www.serif.com/" style="fill-rule:evenodd;clip-rule:evenodd;stroke-linecap:round;stroke-linejoin:round;"><rect x="0" y="0" width="32" height="32" style="fill:none;"/><g><g><path d="M29.713,29.464c-0.001,0.821 -6.2,1.497 -13.733,1.497c-7.533,0 -13.731,-0.676 -13.733,-1.497l0,-0.001c0,-0.822 6.199,-1.498 13.733,-1.498c7.534,0 13.733,0.676 13.733,1.498l0,0.001Z" style="fill:url(#_Radial1);fill-rule:nonzero;"/><g opacity="0.4"><rect x="25.915" y="28.964" width="3.548" height="1.248" style="fill:url(#_Radial2);"/><rect x="2.497" y="28.964" width="3.548" height="1.248" style="fill:url(#_Radial3);"/><rect x="6.045" y="28.964" width="19.87" height="1.248" style="fill:url(#_Linear4);"/></g><path d="M28.714,5.119c0,-0.621 -0.503,-1.124 -1.123,-1.124l-23.221,0c-0.621,0 -1.124,0.503 -1.124,1.124l0,23.221c0,0.62 0.503,1.123 1.124,1.123l23.221,0c0.62,0 1.123,-0.503 1.123,-1.123l0,-23.221Z" style="fill:url(#_Radial5);"/><path d="M28.589,5.119c0,-0.551 -0.447,-0.999 -0.998,-0.999l-23.221,0c-0.552,0 -0.999,0.448 -0.999,0.999l0,23.221c0,0.551 0.447,0.999 0.999,0.999l23.221,0c0.551,0 0.998,-0.448 0.998,-0.999l0,-23.221Z" style="fill:none;stroke:url(#_Linear6);stroke-width:0.5px;"/><path d="M28.589,5.119c0,-0.551 -0.447,-0.999 -0.998,-0.999l-23.221,0c-0.552,0 -0.999,0.448 -0.999,0.999l0,23.221c0,0.551 0.447,0.999 0.999,0.999l23.221,0c0.551,0 0.998,-0.448 0.998,-0.999l0,-23.221Z" style="fill:none;"/><path d="M28.839,5.119c0,-0.689 -0.559,-1.248 -1.248,-1.248l-23.221,0c-0.69,0 -1.249,0.559 -1.249,1.248l0,23.221c0,0.689 0.559,1.248 1.249,1.248l23.221,0c0.689,0 1.248,-0.559 1.248,-1.248l0,-23.221Z" style="fill:none;stroke:#000;stroke-opacity:0.25;stroke-width:0.5px;stroke-linecap:butt;stroke-linejoin:miter;"/><path d="M28.839,5.119c0,-0.689 -0.559,-1.248 -1.248,-1.248l-23.221,0c-0.69,0 -1.249,0.559 -1.249,1.248l0,23.221c0,0.689 0.559,1.248 1.249,1.248l23.221,0c0.689,0 1.248,-0.559 1.248,-1.248l0,-23.221Z" style="fill:none;"/></g><path d="M10.597,19.097l0,1.921c0,0.44 0.126,0.759 0.378,0.957c0.252,0.198 0.622,0.302 1.109,0.31l0,0.906c-0.819,-0.009 -1.453,-0.197 -1.901,-0.563c-0.449,-0.366 -0.673,-0.882 -0.673,-1.545l0,-1.96c0,-0.448 -0.136,-0.768 -0.407,-0.96c-0.272,-0.192 -0.666,-0.288 -1.184,-0.288l0,-0.912c0.561,-0.008 0.966,-0.112 1.216,-0.31c0.25,-0.198 0.375,-0.504 0.375,-0.918l0,-1.979c0,-0.668 0.233,-1.188 0.699,-1.558c0.465,-0.371 1.09,-0.557 1.875,-0.557l0,0.899c-0.992,0.026 -1.487,0.455 -1.487,1.287l0,1.908c0,0.927 -0.481,1.474 -1.442,1.642l0,0.078c0.961,0.168 1.442,0.715 1.442,1.642Z" style="fill:#097bcc;fill-rule:nonzero;"/><path d="M19.113,21.755l-5.27,0l0,-9.454l1.099,0l0,8.458l4.171,0l0,0.996Z" style="fill:#0f8ce6;fill-rule:nonzero;"/><path d="M22.793,17.455l0,-0.078c-0.962,-0.168 -1.443,-0.715 -1.443,-1.642l0,-1.908c0,-0.832 -0.489,-1.261 -1.467,-1.287l0,-0.899c0.793,0 1.417,0.188 1.872,0.563c0.454,0.375 0.682,0.892 0.682,1.552l0,1.979c0,0.418 0.127,0.725 0.381,0.921c0.255,0.196 0.662,0.299 1.223,0.307l0,0.912c-0.526,0 -0.925,0.096 -1.197,0.288c-0.271,0.192 -0.407,0.512 -0.407,0.96l0,1.96c0,0.659 -0.221,1.173 -0.663,1.542c-0.442,0.368 -1.072,0.557 -1.891,0.566l0,-0.906c0.478,-0.008 0.842,-0.112 1.092,-0.31c0.25,-0.198 0.375,-0.517 0.375,-0.957l0,-1.921c0,-0.491 0.119,-0.866 0.356,-1.125c0.237,-0.258 0.599,-0.431 1.087,-0.517Z" style="fill:#097bcc;fill-rule:nonzero;"/></g><defs><radialGradient id="_Radial1" cx="0" cy="0" r="1" gradientUnits="userSpaceOnUse" gradientTransform="matrix(27.4656,0,0,2.99625,15.98,29.4636)"><stop offset="0" style="stop-color:#000;stop-opacity:0.2"/><stop offset="1" style="stop-color:#000;stop-opacity:0"/></radialGradient><radialGradient id="_Radial2" cx="0" cy="0" r="1" gradientUnits="userSpaceOnUse" gradientTransform="matrix(3.54822,0,0,1.24842,25.91,29.5885)"><stop offset="0" style="stop-color:#181818;stop-opacity:0.4"/><stop offset="1" style="stop-color:#181818;stop-opacity:0"/></radialGradient><radialGradient id="_Radial3" cx="0" cy="0" r="1" gradientUnits="userSpaceOnUse" gradientTransform="matrix(3.54822,0,0,1.24842,6.05004,29.5885)"><stop offset="0" style="stop-color:#181818;stop-opacity:0.4"/><stop offset="1" style="stop-color:#181818;stop-opacity:0"/></radialGradient><linearGradient id="_Linear4" x1="0" y1="0" x2="1" y2="0" gradientUnits="userSpaceOnUse" gradientTransform="matrix(3.4167e-15,-1.25348,1.25348,3.4167e-15,16.7309,30.2176)"><stop offset="0" style="stop-color:#181818;stop-opacity:0"/><stop offset="0.5" style="stop-color:#181818;stop-opacity:0.4"/><stop offset="1" style="stop-color:#181818;stop-opacity:0"/></linearGradient><radialGradient id="_Radial5" cx="0" cy="0" r="1" gradientUnits="userSpaceOnUse" gradientTransform="matrix(25.4682,0,0,25.4682,15.98,3.9218)"><stop offset="0" style="stop-color:#fafafa;stop-opacity:1"/><stop offset="1" style="stop-color:#e1e1e1;stop-opacity:1"/></radialGradient><linearGradient id="_Linear6" x1="0" y1="0" x2="1" y2="0" gradientUnits="userSpaceOnUse" gradientTransform="matrix(-9.55096e-18,0.059392,-0.059392,-9.55096e-18,0.0299626,0.00014691)"><stop offset="0" style="stop-color:#fff;stop-opacity:1"/><stop offset="0.03" style="stop-color:#fff;stop-opacity:0.23"/><stop offset="0.96" style="stop-color:#fff;stop-opacity:0.16"/><stop offset="1" style="stop-color:#fff;stop-opacity:0.39"/></linearGradient></defs></svg>