<?xml version="1.0" standalone="no"?><!-- Generator: Gravit.io --><svg xmlns="http://www.w3.org/2000/svg" xmlns:xlink="http://www.w3.org/1999/xlink" style="isolation:isolate" viewBox="0 0 128 128" width="128" height="128"><defs><clipPath id="_clipPath_dFczYKQ8ZQGORPXOfC5prvewBWl58MlQ"><rect width="128" height="128"/></clipPath></defs><g clip-path="url(#_clipPath_dFczYKQ8ZQGORPXOfC5prvewBWl58MlQ)"><g id="software-properties"><g id="layer1"><g id="g3305" style="opacity:0.3;"><radialGradient id="_rgradient_0" fx="0.000057428647193269455%" fy="50.000007483797184%" cx="0.000057428647193269455%" cy="50.000007483797184%" r="59.203902%"><stop offset="0%" stop-opacity="1" style="stop-color:rgb(0,0,0)"/><stop offset="100%" stop-opacity="0" style="stop-color:rgb(0,0,0)"/></radialGradient><rect x="6.085" y="89.841" width="7.399" height="37.365" transform="matrix(-1,0,0,-1,19.569,217.047)" fill="url(#_rgradient_0)"/><linearGradient id="_lgradient_0" x1="24.148671119336672%" y1="100.0024960954753%" x2="24.14867111933668%" y2="-0.002570144080005221%"><stop offset="0%" stop-opacity="0" style="stop-color:rgb(0,0,0)"/><stop offset="50%" stop-opacity="1" style="stop-color:rgb(0,0,0)"/><stop offset="100%" stop-opacity="0" style="stop-color:rgb(0,0,0)"/></linearGradient><rect x="13.484" y="89.841" width="101.012" height="37.365" transform="matrix(1,0,0,1,0,0)" fill="url(#_lgradient_0)"/><radialGradient id="_rgradient_1" fx="0.0001182354502304861%" fy="50.000007483797184%" cx="0.0001182354502304861%" cy="50.000007483797184%" r="59.203902%"><stop offset="0%" stop-opacity="1" style="stop-color:rgb(0,0,0)"/><stop offset="100%" stop-opacity="0" style="stop-color:rgb(0,0,0)"/></radialGradient><rect x="114.516" y="89.841" width="7.399" height="37.365" transform="matrix(-1,0,0,-1,236.431,217.047)" fill="url(#_rgradient_1)"/></g><linearGradient id="_lgradient_1" x1="54.287844508678695%" y1="0.5096709510040404%" x2="54.832278220972384%" y2="95.15934770699545%"><stop offset="2.1739130434782608%" stop-opacity="1" style="stop-color:rgb(232,200,158)"/><stop offset="23.47826086956522%" stop-opacity="1" style="stop-color:rgb(215,178,130)"/><stop offset="27.391304347826086%" stop-opacity="1" style="stop-color:rgb(230,192,144)"/><stop offset="97.3913043478261%" stop-opacity="1" style="stop-color:rgb(159,122,74)"/></linearGradient><linearGradient id="_lgradient_2" x1="29.18416811023668%" y1="-1.379679995961336%" x2="29.184168110236662%" y2="101.49761163631122%"><stop offset="0%" stop-opacity="1" style="stop-color:rgb(167,130,83)"/><stop offset="23.91304347826087%" stop-opacity="1" style="stop-color:rgb(191,143,85)"/><stop offset="27.391304347826086%" stop-opacity="1" style="stop-color:rgb(179,145,102)"/><stop offset="98.26086956521739%" stop-opacity="1" style="stop-color:rgb(157,118,68)"/></linearGradient><path d=" M 26.436 29.431 L 100.359 29.431 C 104.674 29.431 106.616 28.72 107.856 31.913 L 115.378 51.773 L 115.378 115.505 C 115.378 119.361 115.636 118.772 111.321 118.772 L 32.449 118.772 L 16.679 118.772 C 12.364 118.772 12.622 119.361 12.622 115.505 L 12.622 51.773 L 20.144 31.913 C 21.349 28.784 22.121 29.431 26.436 29.431 Z " fill="url(#_lgradient_1)" vector-effect="non-scaling-stroke" stroke-width="1.857" stroke="url(#_lgradient_2)" stroke-linejoin="miter" stroke-linecap="round" stroke-miterlimit="4"/><radialGradient id="_rgradient_2" fx="50.000000370370365%" fy="49.999991428571434%" cx="50.000000370370365%" cy="49.999991428571434%" r="270%"><stop offset="0%" stop-opacity="1" style="stop-color:rgb(203,173,122)"/><stop offset="100%" stop-opacity="0" style="stop-color:rgb(203,174,125)"/></radialGradient><rect x="13.558" y="52.477" width="100.884" height="65.388" transform="matrix(1,0,0,1,0,0)" fill="url(#_rgradient_2)"/><g opacity="0.50549454"><linearGradient id="_lgradient_3" x1="49.99999184155048%" y1="62.27058378261023%" x2="115.23050468787524%" y2="115.64757986294549%"><stop offset="0%" stop-opacity="0" style="stop-color:rgb(255,255,255)"/><stop offset="100%" stop-opacity="0" style="stop-color:rgb(255,255,255)"/></linearGradient><path d=" M 28.786 31.946 L 98.085 31.946 C 102.131 31.946 104.634 33.327 106.329 37.124 L 112.165 53.06 L 112.165 110.514 C 112.165 114.14 110.113 115.966 106.068 115.966 L 21.531 115.966 C 17.485 115.966 15.835 113.958 15.835 110.332 L 15.835 53.06 L 21.483 36.782 C 22.613 33.84 24.74 31.946 28.786 31.946 Z " fill="none" vector-effect="non-scaling-stroke" stroke-width="1.386" stroke="url(#_lgradient_3)" stroke-linejoin="miter" stroke-linecap="butt" stroke-miterlimit="4"/></g><g opacity="0.3"><linearGradient id="_lgradient_4" x1="-1.2198232714981716%" y1="0.0000013636436591024648%" x2="101.21981919086235%" y2="0.0000013636436591024648%"><stop offset="0%" stop-opacity="0" style="stop-color:rgb(255,255,255)"/><stop offset="16.682135000000002%" stop-opacity="1" style="stop-color:rgb(255,255,255)"/><stop offset="83.237511%" stop-opacity="1" style="stop-color:rgb(255,255,255)"/><stop offset="100%" stop-opacity="0" style="stop-color:rgb(255,255,255)"/></linearGradient><line x1="12.624" y1="51.542" x2="115.376" y2="51.542" vector-effect="non-scaling-stroke" stroke-width="1.868" stroke="url(#_lgradient_4)" stroke-linejoin="miter" stroke-linecap="square" stroke-miterlimit="4"/></g></g><g opacity="0.3"><path d=" M 46.06 75.285 L 82.06 75.285 C 85.384 75.285 88.06 77.961 88.06 81.285 C 88.06 84.609 85.384 87.285 82.06 87.285 L 46.06 87.285 C 42.736 87.285 40.06 84.609 40.06 81.285 C 40.06 77.961 42.736 75.285 46.06 75.285 Z " fill="rgb(255,255,255)"/></g><g opacity="0.8"><path d=" M 46.06 69.285 L 82.06 69.285 C 85.384 69.285 88.06 71.961 88.06 75.285 C 88.06 78.609 85.384 81.285 82.06 81.285 L 46.06 81.285 C 42.736 81.285 40.06 78.609 40.06 75.285 C 40.06 71.961 42.736 69.285 46.06 69.285 Z " fill="rgb(141,103,56)" fill-opacity="0.7372549"/></g><g opacity="0.1"><path d=" M 45.94 69.285 C 42.616 69.285 39.94 71.961 39.94 75.285 C 39.94 76.403 40.326 77.39 40.854 78.285 C 41.897 76.52 43.735 75.285 45.94 75.285 L 81.94 75.285 C 84.146 75.285 85.984 76.52 87.026 78.285 C 87.555 77.39 87.94 76.403 87.94 75.285 C 87.94 71.961 85.264 69.285 81.94 69.285 L 45.94 69.285 Z " fill="rgb(0,0,0)"/></g><g id="g6811"><radialGradient id="_rgradient_3" fx="31.842688813548214%" fy="9.593250737737424%" cx="50%" cy="50%" r="50%" gradientTransform="matrix(1.4315824812675528 0.0616395360795429 0.09953116153880416 0.9567180147949464 -0.04614021263782342 -0.044873647888699034)"><stop offset="0%" stop-opacity="1" style="stop-color:rgb(67,163,195)"/><stop offset="42.173913043478265%" stop-opacity="1" style="stop-color:rgb(31,122,179)"/><stop offset="75.12752125561445%" stop-opacity="1" style="stop-color:rgb(38,96,156)"/></radialGradient><path d=" M 89.269 62.61 C 72.732 62.61 59.33 76.012 59.33 92.549 C 59.33 109.085 72.732 122.535 89.269 122.535 C 105.805 122.535 119.255 109.085 119.255 92.549 C 119.255 76.012 105.805 62.61 89.269 62.61 Z " fill="url(#_rgradient_3)" vector-effect="non-scaling-stroke" stroke-width="1.868" stroke="rgb(32,74,135)" stroke-linejoin="round" stroke-linecap="round" stroke-miterlimit="4"/><g opacity="0.4"><linearGradient id="_lgradient_5" x1="36.95720505214075%" y1="58.69488991809929%" x2="56.84324744982654%" y2="-2.7763371909972134%"><stop offset="0%" stop-opacity="0" style="stop-color:rgb(255,255,255)"/><stop offset="100%" stop-opacity="1" style="stop-color:rgb(255,255,255)"/></linearGradient><path d=" M 117.035 92.571 C 117.035 107.894 104.613 120.315 89.293 120.315 C 73.97 120.315 61.549 107.894 61.549 92.571 C 61.549 77.25 73.97 64.83 89.293 64.83 C 104.613 64.83 117.035 77.25 117.035 92.571 L 117.035 92.571 Z " fill="none" vector-effect="non-scaling-stroke" stroke-width="1.869" stroke="url(#_lgradient_5)" stroke-linejoin="miter" stroke-linecap="butt" stroke-miterlimit="4"/></g></g></g><g id="view-refresh"><g opacity="0.19"><path d=" M 91.159 78.123 C 91.133 78.123 91.097 78.141 91.097 78.252 L 91.097 81.208 C 91.082 81.742 90.62 82.221 90.104 82.236 C 82.982 82.236 77.201 88.226 77.201 95.604 C 77.201 102.982 82.982 108.972 90.104 108.972 C 96.887 108.972 102.371 103.52 102.883 96.632 L 98.851 96.632 C 98.333 101.243 94.69 104.859 90.104 104.859 C 85.166 104.859 81.171 100.72 81.171 95.604 C 81.171 90.489 85.166 86.35 90.104 86.35 C 90.62 86.365 91.082 86.844 91.097 87.378 L 91.097 90.334 C 91.097 90.445 91.133 90.463 91.159 90.463 L 100.774 84.486 C 101.261 84.289 100.774 84.1 100.774 84.1 L 91.159 78.123 Z " fill="none" vector-effect="non-scaling-stroke" stroke-width="2.021" stroke="rgb(255,255,255)" stroke-linejoin="round" stroke-linecap="round" stroke-miterlimit="4"/></g><g opacity="0.02999998"><path d=" M 91.035 79.373 L 91.035 80.401 C 91.048 81.907 89.991 83.195 88.553 83.422 C 88.265 83.464 88.027 83.614 87.747 83.679 C 88.582 83.569 89.422 83.838 90.052 84.417 C 90.681 84.995 91.04 85.827 91.035 86.699 L 91.035 88.306 L 98.231 83.871 L 91.035 79.373 Z  M 86.94 83.936 C 84.763 84.628 82.906 85.921 81.543 87.727 C 82.901 85.952 84.802 84.613 86.94 83.936 Z  M 81.543 87.727 C 80.101 89.638 79.124 91.966 79.124 94.604 C 79.124 100.919 84.008 105.979 90.104 105.979 C 95.16 105.979 99.172 102.414 100.464 97.625 L 100.34 97.625 C 99.033 102.32 95.036 105.851 90.104 105.851 C 84.14 105.851 79.248 100.783 79.248 94.604 C 79.248 91.998 80.089 89.629 81.543 87.727 Z " fill="none" vector-effect="non-scaling-stroke" stroke-width="2.021" stroke="rgb(0,0,0)" stroke-linejoin="miter" stroke-linecap="butt" stroke-miterlimit="4"/></g><path d=" M 91.159 76.095 C 90.561 76.095 90.104 76.616 90.104 77.252 L 90.104 80.208 C 82.43 80.208 76.208 86.653 76.208 94.604 C 76.208 102.555 82.43 109 90.104 109 C 97.779 109 104 102.555 104 94.604 L 98.045 94.604 C 98.045 99.147 94.489 102.83 90.104 102.83 C 85.719 102.83 82.164 99.147 82.164 94.604 C 82.164 90.061 85.719 86.378 90.104 86.378 L 90.104 89.334 C 90.104 89.97 90.561 90.491 91.159 90.491 C 91.308 90.491 91.463 90.485 91.593 90.427 L 101.332 84.386 C 101.721 84.211 102.015 83.77 102.015 83.293 C 102.015 82.816 101.721 82.375 101.332 82.2 L 91.593 76.159 C 91.463 76.101 91.308 76.095 91.159 76.095 Z " fill="rgb(32,74,135)"/><path d=" M 91.159 77.123 C 91.133 77.123 91.097 77.141 91.097 77.252 L 91.097 80.208 C 91.082 80.742 90.62 81.221 90.104 81.236 C 82.982 81.236 77.201 87.226 77.201 94.604 C 77.201 101.982 82.982 107.972 90.104 107.972 C 96.887 107.972 102.371 102.52 102.883 95.632 L 98.851 95.632 C 98.333 100.243 94.69 103.859 90.104 103.859 C 85.166 103.859 81.171 99.72 81.171 94.604 C 81.171 89.489 85.166 85.35 90.104 85.35 C 90.62 85.365 91.082 85.844 91.097 86.378 L 91.097 89.334 C 91.097 89.445 91.133 89.463 91.159 89.463 L 100.774 83.486 C 101.261 83.289 100.774 83.1 100.774 83.1 L 91.159 77.123 Z " fill="none" vector-effect="non-scaling-stroke" stroke-width="2.021" stroke="rgb(26,62,117)" stroke-linejoin="round" stroke-linecap="round" stroke-miterlimit="4"/></g></g></svg>