<?xml version="1.0" encoding="UTF-8" standalone="no"?><!-- Generator: Gravit.io --><svg xmlns="http://www.w3.org/2000/svg" xmlns:xlink="http://www.w3.org/1999/xlink" style="isolation:isolate" viewBox="0 0 32 32" width="32pt" height="32pt"><defs><clipPath id="_clipPath_21PSsdnzPLCHrrTLSZnIvMPsJWmvSUbC"><rect width="32" height="32"/></clipPath></defs><g clip-path="url(#_clipPath_21PSsdnzPLCHrrTLSZnIvMPsJWmvSUbC)"><clipPath id="_clipPath_RKtZgaNgNX4hNNpc1uDnd6VXdNSMRhqV"><rect x="0" y="0" width="32" height="32" transform="matrix(1,0,0,1,0,0)" fill="rgb(255,255,255)"/></clipPath><g clip-path="url(#_clipPath_RKtZgaNgNX4hNNpc1uDnd6VXdNSMRhqV)"><g><g><g style="opacity:0.3;"><g opacity="0.3"><radialGradient id="_rgradient_9" fx="5.742864719326946e-7" fy="0.5000000748379718" cx="5.742864719326946e-7" cy="0.5000000748379718" r="0.59203902" gradientTransform="matrix(1.85,0,0,9.341,1.521,22.46)" gradientUnits="userSpaceOnUse"><stop offset="0%" stop-opacity="1" style="stop-color:rgb(0,0,0)"/><stop offset="100%" stop-opacity="0" style="stop-color:rgb(0,0,0)"/></radialGradient><rect x="1.521" y="22.46" width="1.85" height="9.341" transform="matrix(-1,0,0,-1,4.892,54.262)" fill="url(#_rgradient_9)"/></g><g opacity="0.3"><linearGradient id="_lgradient_21" x1="0" y1="0.5" x2="2.83276944882399e-16" y2="-0.5" gradientTransform="matrix(25.253,0,0,9.341,3.371,22.46)" gradientUnits="userSpaceOnUse"><stop offset="0%" stop-opacity="0" style="stop-color:rgb(0,0,0)"/><stop offset="50.002533119777645%" stop-opacity="1" style="stop-color:rgb(0,0,0)"/><stop offset="100%" stop-opacity="0.00005065982900465116" style="stop-color:rgb(0,0,0)"/></linearGradient><rect x="3.371" y="22.46" width="25.253" height="9.341" transform="matrix(1,0,0,1,0,0)" fill="url(#_lgradient_21)"/></g><g opacity="0.3"><radialGradient id="_rgradient_10" fx="0.000001182354502304861" fy="0.5000000748379718" cx="0.000001182354502304861" cy="0.5000000748379718" r="0.59203902" gradientTransform="matrix(1.85,0,0,9.341,28.629,22.46)" gradientUnits="userSpaceOnUse"><stop offset="0%" stop-opacity="1" style="stop-color:rgb(0,0,0)"/><stop offset="100%" stop-opacity="0" style="stop-color:rgb(0,0,0)"/></radialGradient><rect x="28.629" y="22.46" width="1.85" height="9.341" transform="matrix(-1,0,0,-1,59.108,54.262)" fill="url(#_rgradient_10)"/></g></g><linearGradient id="_lgradient_22" x1="0" y1="0.5" x2="0.00660865367666938" y2="1.4999781626098552" gradientTransform="matrix(25.69,0,0,22.36,3.155,7.341)" gradientUnits="userSpaceOnUse"><stop offset="2.601990682514047%" stop-opacity="1" style="stop-color:rgb(232,200,158)"/><stop offset="22.766487034877436%" stop-opacity="1" style="stop-color:rgb(215,178,130)"/><stop offset="26.470170038372753%" stop-opacity="1" style="stop-color:rgb(230,192,144)"/><stop offset="92.72494376756674%" stop-opacity="1" style="stop-color:rgb(159,122,74)"/></linearGradient><mask id="_mask_cw1IHGvwfzUJwTnYHqpFPeQhavLD0b9u" x="-200%" y="-200%" width="400%" height="400%"><rect x="-200%" y="-200%" width="400%" height="400%" style="fill:white;"/><path d=" M 6.609 7.358 L 25.09 7.358 C 26.169 7.358 26.654 7.18 26.964 7.978 L 28.845 12.943 L 28.845 28.876 C 28.845 29.84 28.909 29.693 27.83 29.693 L 8.112 29.693 L 4.17 29.693 C 3.091 29.693 3.156 29.84 3.156 28.876 L 3.156 12.943 L 5.036 7.978 C 5.337 7.196 5.53 7.358 6.609 7.358 Z " fill="black" stroke="none"/></mask><linearGradient id="_lgradient_23" x1="0" y1="0.5" x2="6.123233995736766e-17" y2="-0.5"><stop offset="0%" stop-opacity="1" style="stop-color:rgb(157,118,68)"/><stop offset="24.601091477282566%" stop-opacity="1" style="stop-color:rgb(179,145,102)"/><stop offset="28.17943205579639%" stop-opacity="1" style="stop-color:rgb(191,143,85)"/><stop offset="100%" stop-opacity="1" style="stop-color:rgb(167,130,83)"/></linearGradient><path d=" M 6.609 7.358 L 25.09 7.358 C 26.169 7.358 26.654 7.18 26.964 7.978 L 28.845 12.943 L 28.845 28.876 C 28.845 29.84 28.909 29.693 27.83 29.693 L 8.112 29.693 L 4.17 29.693 C 3.091 29.693 3.156 29.84 3.156 28.876 L 3.156 12.943 L 5.036 7.978 C 5.337 7.196 5.53 7.358 6.609 7.358 Z " fill="url(#_lgradient_22)" mask="url(#_mask_cw1IHGvwfzUJwTnYHqpFPeQhavLD0b9u)" vector-effect="non-scaling-stroke" stroke-width="2" stroke="url(#_lgradient_23)" stroke-linejoin="miter" stroke-linecap="round" stroke-miterlimit="4"/><path d=" M 6.609 7.358 L 25.09 7.358 C 26.169 7.358 26.654 7.18 26.964 7.978 L 28.845 12.943 L 28.845 28.876 C 28.845 29.84 28.909 29.693 27.83 29.693 L 8.112 29.693 L 4.17 29.693 C 3.091 29.693 3.156 29.84 3.156 28.876 L 3.156 12.943 L 5.036 7.978 C 5.337 7.196 5.53 7.358 6.609 7.358 Z " fill="url(#_lgradient_22)"/><radialGradient id="_rgradient_11" fx="0.5000000037037037" fy="0.49999991428571433" cx="0.5000000037037037" cy="0.49999991428571433" r="2.7" gradientTransform="matrix(25.221,0,0,16.347,3.39,13.119)" gradientUnits="userSpaceOnUse"><stop offset="0%" stop-opacity="1" style="stop-color:rgb(203,173,122)"/><stop offset="100%" stop-opacity="0" style="stop-color:rgb(203,174,125)"/></radialGradient><rect x="3.39" y="13.119" width="25.221" height="16.347" transform="matrix(1,0,0,1,0,0)" fill="url(#_rgradient_11)"/><g style="opacity:0.50549454;"><g opacity="0.50549454"><mask id="_mask_AP6cna5GxPiab34zDKSJ3ADqKy6XlFtb" x="-200%" y="-200%" width="400%" height="400%"><rect x="-200%" y="-200%" width="400%" height="400%" style="fill:white;"/><path d=" M 7.197 7.987 L 24.521 7.987 C 25.533 7.987 26.159 8.332 26.582 9.281 L 28.041 13.265 L 28.041 27.629 C 28.041 28.535 27.528 28.992 26.517 28.992 L 5.383 28.992 C 4.371 28.992 3.959 28.49 3.959 27.583 L 3.959 13.265 L 5.371 9.196 C 5.653 8.46 6.185 7.987 7.197 7.987 Z " fill="black" stroke="none"/></mask><linearGradient id="_lgradient_24" x1="0" y1="0.5" x2="0.8139533602237955" y2="1.0809302259139149"><stop offset="55.060685773456065%" stop-opacity="0" style="stop-color:rgb(255,255,255)"/><stop offset="100%" stop-opacity="0" style="stop-color:rgb(255,255,255)"/></linearGradient><path d=" M 7.197 7.987 L 24.521 7.987 C 25.533 7.987 26.159 8.332 26.582 9.281 L 28.041 13.265 L 28.041 27.629 C 28.041 28.535 27.528 28.992 26.517 28.992 L 5.383 28.992 C 4.371 28.992 3.959 28.49 3.959 27.583 L 3.959 13.265 L 5.371 9.196 C 5.653 8.46 6.185 7.987 7.197 7.987 Z " fill="none" mask="url(#_mask_AP6cna5GxPiab34zDKSJ3ADqKy6XlFtb)" vector-effect="non-scaling-stroke" stroke-width="2.772" stroke="url(#_lgradient_24)" stroke-linejoin="miter" stroke-linecap="butt" stroke-miterlimit="4"/><path d=" M 7.197 7.987 L 24.521 7.987 C 25.533 7.987 26.159 8.332 26.582 9.281 L 28.041 13.265 L 28.041 27.629 C 28.041 28.535 27.528 28.992 26.517 28.992 L 5.383 28.992 C 4.371 28.992 3.959 28.49 3.959 27.583 L 3.959 13.265 L 5.371 9.196 C 5.653 8.46 6.185 7.987 7.197 7.987 Z " fill="none"/></g></g><g style="opacity:0.3;"><g opacity="0.3"><mask id="_mask_0PwkHUAqU0w6vQysssrU4XZ1Oy8tYFQh" x="-200%" y="-200%" width="400%" height="400%"><rect x="-200%" y="-200%" width="400%" height="400%" style="fill:white;"/><line x1="3.156" y1="12.886" x2="28.844" y2="12.886" fill="black" stroke="none"/></mask><linearGradient id="_lgradient_25" x1="0" y1="0.5" x2="1" y2="0.5"><stop offset="0%" stop-opacity="0.011907726756723025" style="stop-color:rgb(255,255,255)"/><stop offset="15.869296177590126%" stop-opacity="1" style="stop-color:rgb(255,255,255)"/><stop offset="84.04838539146984%" stop-opacity="1" style="stop-color:rgb(255,255,255)"/><stop offset="100%" stop-opacity="0.02381541367890805" style="stop-color:rgb(255,255,255)"/></linearGradient><line x1="3.156" y1="12.886" x2="28.844" y2="12.886" mask="url(#_mask_0PwkHUAqU0w6vQysssrU4XZ1Oy8tYFQh)" vector-effect="non-scaling-stroke" stroke-width="3.736" stroke="url(#_lgradient_25)" stroke-linejoin="miter" stroke-linecap="square" stroke-miterlimit="4"/></g></g></g><g opacity="0.3"><path d=" M 11.515 18.071 L 20.515 18.071 C 21.346 18.071 22.015 18.74 22.015 19.571 C 22.015 20.402 21.346 21.071 20.515 21.071 L 11.515 21.071 C 10.684 21.071 10.015 20.402 10.015 19.571 C 10.015 18.74 10.684 18.071 11.515 18.071 Z " fill="rgb(255,255,255)"/></g><g opacity="0.8"><path d=" M 11.515 17.321 L 20.515 17.321 C 21.346 17.321 22.015 17.99 22.015 18.821 C 22.015 19.652 21.346 20.321 20.515 20.321 L 11.515 20.321 C 10.684 20.321 10.015 19.652 10.015 18.821 C 10.015 17.99 10.684 17.321 11.515 17.321 Z " fill="rgb(141,103,56)" fill-opacity="0.7372549"/></g><g opacity="0.1"><path d=" M 11.485 17.321 C 10.654 17.321 9.985 17.99 9.985 18.821 C 9.985 19.101 10.082 19.348 10.214 19.571 C 10.474 19.13 10.934 18.821 11.485 18.821 L 20.485 18.821 C 21.037 18.821 21.496 19.13 21.757 19.571 C 21.889 19.348 21.985 19.101 21.985 18.821 C 21.985 17.99 21.316 17.321 20.485 17.321 L 11.485 17.321 Z " fill="rgb(0,0,0)"/></g><g opacity="0.3"><path d=" M 10.531 8.964 L 21.304 8.964 C 22.299 8.964 23.1 9.392 23.1 9.923 C 23.1 10.455 22.299 10.883 21.304 10.883 L 10.531 10.883 C 9.537 10.883 8.736 10.455 8.736 9.923 C 8.736 9.392 9.537 8.964 10.531 8.964 Z " fill="rgb(255,255,255)"/></g><g opacity="0.8"><path d=" M 10.531 8.484 L 21.304 8.484 C 22.299 8.484 23.1 8.912 23.1 9.443 C 23.1 9.975 22.299 10.403 21.304 10.403 L 10.531 10.403 C 9.537 10.403 8.736 9.975 8.736 9.443 C 8.736 8.912 9.537 8.484 10.531 8.484 Z " fill="rgb(141,103,56)" fill-opacity="0.7372549"/></g><g opacity="0.1"><path d=" M 10.496 8.484 C 9.501 8.484 8.7 8.912 8.7 9.443 C 8.7 9.622 8.816 9.78 8.974 9.923 C 9.286 9.641 9.836 9.443 10.496 9.443 L 21.269 9.443 C 21.929 9.443 22.479 9.641 22.791 9.923 C 22.949 9.78 23.064 9.622 23.064 9.443 C 23.064 8.912 22.263 8.484 21.269 8.484 L 10.496 8.484 Z " fill="rgb(0,0,0)"/></g></g><clipPath id="_clipPath_JAsEjlkVDv7S4treGCmg5ZpJOpgA5d6t"><rect x="3.75" y="1.25" width="24.75" height="9.103" transform="matrix(1,0,0,1,0,0)" fill="rgb(255,255,255)"/></clipPath><g clip-path="url(#_clipPath_JAsEjlkVDv7S4treGCmg5ZpJOpgA5d6t)"><g><linearGradient id="_lgradient_26" x1="0.1464466094067262" y1="0.14644660940672627" x2="0.8535533905932737" y2="0.8535533905932737" gradientTransform="matrix(10.132,-2.754,2.827,10.701,9.628,3.255)" gradientUnits="userSpaceOnUse"><stop offset="0%" stop-opacity="1" style="stop-color:rgb(160,70,185)"/><stop offset="100%" stop-opacity="1" style="stop-color:rgb(87,34,202)"/></linearGradient><path d=" M 15.079 1.774 C 14.861 1.833 14.739 2.048 14.793 2.254 L 15.047 3.216 C 12.25 3.976 10.535 6.689 11.218 9.274 C 11.901 11.86 14.723 13.34 17.521 12.579 C 20.319 11.819 22.033 9.107 21.35 6.521 L 19.179 7.111 C 19.569 8.588 18.589 10.138 16.991 10.573 C 15.392 11.007 13.78 10.162 13.39 8.684 C 12.999 7.207 13.979 5.657 15.577 5.222 L 15.831 6.184 C 15.886 6.391 16.097 6.515 16.315 6.455 C 16.37 6.441 16.426 6.423 16.468 6.392 L 19.499 3.462 C 19.626 3.367 19.696 3.194 19.655 3.039 C 19.614 2.884 19.469 2.77 19.312 2.751 L 15.242 1.751 C 15.19 1.745 15.133 1.759 15.079 1.774 Z " fill="url(#_lgradient_26)"/><mask id="_mask_EoJpQlXc0vBfJM93mGJbylYt7zRIwmur" x="-200%" y="-200%" width="400%" height="400%"><rect x="-200%" y="-200%" width="400%" height="400%" style="fill:white;"/><path d=" M 15.167 2.108 C 15.157 2.111 15.146 2.12 15.155 2.156 L 15.409 3.117 C 15.45 3.293 15.322 3.494 15.136 3.55 C 12.539 4.256 10.947 6.777 11.58 9.176 C 12.214 11.575 14.836 12.951 17.433 12.245 C 19.905 11.573 21.436 9.257 21.031 6.966 L 19.561 7.365 C 19.769 8.916 18.751 10.453 17.079 10.907 C 15.279 11.397 13.467 10.446 13.028 8.783 C 12.588 7.119 13.689 5.377 15.489 4.888 C 15.679 4.842 15.888 4.952 15.939 5.124 L 16.193 6.085 C 16.203 6.121 16.218 6.124 16.227 6.121 L 19.219 3.225 C 19.379 3.112 19.186 3.099 19.186 3.099 L 15.167 2.108 Z " fill="black" stroke="none"/></mask><linearGradient id="_lgradient_27" x1="0.1464466094067262" y1="0.14644660940672627" x2="0.8535533905932737" y2="0.8535533905932737"><stop offset="0%" stop-opacity="1" style="stop-color:rgb(97,39,200)"/><stop offset="100%" stop-opacity="1" style="stop-color:rgb(49,21,140)"/></linearGradient><path d=" M 15.167 2.108 C 15.157 2.111 15.146 2.12 15.155 2.156 L 15.409 3.117 C 15.45 3.293 15.322 3.494 15.136 3.55 C 12.539 4.256 10.947 6.777 11.58 9.176 C 12.214 11.575 14.836 12.951 17.433 12.245 C 19.905 11.573 21.436 9.257 21.031 6.966 L 19.561 7.365 C 19.769 8.916 18.751 10.453 17.079 10.907 C 15.279 11.397 13.467 10.446 13.028 8.783 C 12.588 7.119 13.689 5.377 15.489 4.888 C 15.679 4.842 15.888 4.952 15.939 5.124 L 16.193 6.085 C 16.203 6.121 16.218 6.124 16.227 6.121 L 19.219 3.225 C 19.379 3.112 19.186 3.099 19.186 3.099 L 15.167 2.108 Z " fill="none" mask="url(#_mask_EoJpQlXc0vBfJM93mGJbylYt7zRIwmur)" vector-effect="non-scaling-stroke" stroke-width="2" stroke="url(#_lgradient_27)" stroke-opacity="100" stroke-linejoin="round" stroke-linecap="round" stroke-miterlimit="4"/><path d=" M 15.167 2.108 C 15.157 2.111 15.146 2.12 15.155 2.156 L 15.409 3.117 C 15.45 3.293 15.322 3.494 15.136 3.55 C 12.539 4.256 10.947 6.777 11.58 9.176 C 12.214 11.575 14.836 12.951 17.433 12.245 C 19.905 11.573 21.436 9.257 21.031 6.966 L 19.561 7.365 C 19.769 8.916 18.751 10.453 17.079 10.907 C 15.279 11.397 13.467 10.446 13.028 8.783 C 12.588 7.119 13.689 5.377 15.489 4.888 C 15.679 4.842 15.888 4.952 15.939 5.124 L 16.193 6.085 C 16.203 6.121 16.218 6.124 16.227 6.121 L 19.219 3.225 C 19.379 3.112 19.186 3.099 19.186 3.099 L 15.167 2.108 Z " fill="none"/></g></g></g></g></svg>