<?xml version="1.0" encoding="UTF-8" standalone="no"?><!-- Generator: Gravit.io --><svg xmlns="http://www.w3.org/2000/svg" xmlns:xlink="http://www.w3.org/1999/xlink" style="isolation:isolate" viewBox="0 0 64 64" width="64pt" height="64pt"><defs><clipPath id="_clipPath_nrOnEV22VmRY86hq81GBiGXfXAM4Gy1i"><rect width="64" height="64"/></clipPath></defs><g clip-path="url(#_clipPath_nrOnEV22VmRY86hq81GBiGXfXAM4Gy1i)"><clipPath id="_clipPath_lnkImsnc0AenCV1eAF2UWeNpNB5T0p1i"><rect x="0" y="0" width="64" height="64" transform="matrix(1,0,0,1,0,0)" fill="rgb(255,255,255)"/></clipPath><g clip-path="url(#_clipPath_lnkImsnc0AenCV1eAF2UWeNpNB5T0p1i)"><g><g><g style="opacity:0.3;"><g opacity="0.3"><radialGradient id="_rgradient_3" fx="5.742864719326946e-7" fy="0.5000000748379718" cx="5.742864719326946e-7" cy="0.5000000748379718" r="0.59203902" gradientTransform="matrix(3.7,0,0,18.683,3.042,44.921)" gradientUnits="userSpaceOnUse"><stop offset="0%" stop-opacity="1" style="stop-color:rgb(0,0,0)"/><stop offset="100%" stop-opacity="0" style="stop-color:rgb(0,0,0)"/></radialGradient><rect x="3.042" y="44.921" width="3.7" height="18.683" transform="matrix(-1,0,0,-1,9.785,108.524)" fill="url(#_rgradient_3)"/></g><g opacity="0.3"><linearGradient id="_lgradient_7" x1="0" y1="0.5" x2="2.83276944882399e-16" y2="-0.5" gradientTransform="matrix(50.506,0,0,18.683,6.742,44.921)" gradientUnits="userSpaceOnUse"><stop offset="0%" stop-opacity="0" style="stop-color:rgb(0,0,0)"/><stop offset="50.002533119777645%" stop-opacity="1" style="stop-color:rgb(0,0,0)"/><stop offset="100%" stop-opacity="0.00005065982900465116" style="stop-color:rgb(0,0,0)"/></linearGradient><rect x="6.742" y="44.921" width="50.506" height="18.683" transform="matrix(1,0,0,1,0,0)" fill="url(#_lgradient_7)"/></g><g opacity="0.3"><radialGradient id="_rgradient_4" fx="0.000001182354502304861" fy="0.5000000748379718" cx="0.000001182354502304861" cy="0.5000000748379718" r="0.59203902" gradientTransform="matrix(3.7,0,0,18.683,57.258,44.921)" gradientUnits="userSpaceOnUse"><stop offset="0%" stop-opacity="1" style="stop-color:rgb(0,0,0)"/><stop offset="100%" stop-opacity="0" style="stop-color:rgb(0,0,0)"/></radialGradient><rect x="57.258" y="44.921" width="3.7" height="18.683" transform="matrix(-1,0,0,-1,118.216,108.524)" fill="url(#_rgradient_4)"/></g></g><linearGradient id="_lgradient_8" x1="0" y1="0.5" x2="0.00660865367666938" y2="1.4999781626098552" gradientTransform="matrix(51.381,0,0,44.72,6.31,14.682)" gradientUnits="userSpaceOnUse"><stop offset="2.601990682514047%" stop-opacity="1" style="stop-color:rgb(232,200,158)"/><stop offset="22.766487034877436%" stop-opacity="1" style="stop-color:rgb(215,178,130)"/><stop offset="26.470170038372753%" stop-opacity="1" style="stop-color:rgb(230,192,144)"/><stop offset="92.72494376756674%" stop-opacity="1" style="stop-color:rgb(159,122,74)"/></linearGradient><mask id="_mask_FpSdWP9E1TInuIN73RvTcBH21Qejr16r" x="-200%" y="-200%" width="400%" height="400%"><rect x="-200%" y="-200%" width="400%" height="400%" style="fill:white;"/><path d=" M 13.218 14.716 L 50.18 14.716 C 52.337 14.716 53.308 14.36 53.928 15.957 L 57.689 25.887 L 57.689 57.753 C 57.689 59.681 57.818 59.386 55.661 59.386 L 16.224 59.386 L 8.34 59.386 C 6.182 59.386 6.311 59.681 6.311 57.753 L 6.311 25.887 L 10.072 15.957 C 10.675 14.392 11.061 14.716 13.218 14.716 Z " fill="black" stroke="none"/></mask><linearGradient id="_lgradient_9" x1="0" y1="0.5" x2="6.123233995736766e-17" y2="-0.5"><stop offset="0%" stop-opacity="1" style="stop-color:rgb(157,118,68)"/><stop offset="24.601091477282566%" stop-opacity="1" style="stop-color:rgb(179,145,102)"/><stop offset="28.17943205579639%" stop-opacity="1" style="stop-color:rgb(191,143,85)"/><stop offset="100%" stop-opacity="1" style="stop-color:rgb(167,130,83)"/></linearGradient><path d=" M 13.218 14.716 L 50.18 14.716 C 52.337 14.716 53.308 14.36 53.928 15.957 L 57.689 25.887 L 57.689 57.753 C 57.689 59.681 57.818 59.386 55.661 59.386 L 16.224 59.386 L 8.34 59.386 C 6.182 59.386 6.311 59.681 6.311 57.753 L 6.311 25.887 L 10.072 15.957 C 10.675 14.392 11.061 14.716 13.218 14.716 Z " fill="url(#_lgradient_8)" mask="url(#_mask_FpSdWP9E1TInuIN73RvTcBH21Qejr16r)" vector-effect="non-scaling-stroke" stroke-width="3.2" stroke="url(#_lgradient_9)" stroke-linejoin="miter" stroke-linecap="round" stroke-miterlimit="4"/><path d=" M 13.218 14.716 L 50.18 14.716 C 52.337 14.716 53.308 14.36 53.928 15.957 L 57.689 25.887 L 57.689 57.753 C 57.689 59.681 57.818 59.386 55.661 59.386 L 16.224 59.386 L 8.34 59.386 C 6.182 59.386 6.311 59.681 6.311 57.753 L 6.311 25.887 L 10.072 15.957 C 10.675 14.392 11.061 14.716 13.218 14.716 Z " fill="url(#_lgradient_8)"/><radialGradient id="_rgradient_5" fx="0.5000000037037037" fy="0.49999991428571433" cx="0.5000000037037037" cy="0.49999991428571433" r="2.7" gradientTransform="matrix(50.442,0,0,32.694,6.779,26.238)" gradientUnits="userSpaceOnUse"><stop offset="0%" stop-opacity="1" style="stop-color:rgb(203,173,122)"/><stop offset="100%" stop-opacity="0" style="stop-color:rgb(203,174,125)"/></radialGradient><rect x="6.779" y="26.238" width="50.442" height="32.694" transform="matrix(1,0,0,1,0,0)" fill="url(#_rgradient_5)"/><g style="opacity:0.50549454;"><g opacity="0.50549454"><mask id="_mask_XrZprZ1PeDEtgXyAJBVCnQIVEFKXTnho" x="-200%" y="-200%" width="400%" height="400%"><rect x="-200%" y="-200%" width="400%" height="400%" style="fill:white;"/><path d=" M 14.393 15.973 L 49.043 15.973 C 51.066 15.973 52.317 16.664 53.165 18.562 L 56.083 26.53 L 56.083 55.257 C 56.083 57.07 55.057 57.983 53.034 57.983 L 10.766 57.983 C 8.743 57.983 7.918 56.979 7.918 55.166 L 7.918 26.53 L 10.742 18.391 C 11.307 16.92 12.37 15.973 14.393 15.973 Z " fill="black" stroke="none"/></mask><linearGradient id="_lgradient_10" x1="0" y1="0.5" x2="0.8139533602237955" y2="1.0809302259139149"><stop offset="55.060685773456065%" stop-opacity="0" style="stop-color:rgb(255,255,255)"/><stop offset="100%" stop-opacity="0" style="stop-color:rgb(255,255,255)"/></linearGradient><path d=" M 14.393 15.973 L 49.043 15.973 C 51.066 15.973 52.317 16.664 53.165 18.562 L 56.083 26.53 L 56.083 55.257 C 56.083 57.07 55.057 57.983 53.034 57.983 L 10.766 57.983 C 8.743 57.983 7.918 56.979 7.918 55.166 L 7.918 26.53 L 10.742 18.391 C 11.307 16.92 12.37 15.973 14.393 15.973 Z " fill="none" mask="url(#_mask_XrZprZ1PeDEtgXyAJBVCnQIVEFKXTnho)" vector-effect="non-scaling-stroke" stroke-width="2.772" stroke="url(#_lgradient_10)" stroke-linejoin="miter" stroke-linecap="butt" stroke-miterlimit="4"/><path d=" M 14.393 15.973 L 49.043 15.973 C 51.066 15.973 52.317 16.664 53.165 18.562 L 56.083 26.53 L 56.083 55.257 C 56.083 57.07 55.057 57.983 53.034 57.983 L 10.766 57.983 C 8.743 57.983 7.918 56.979 7.918 55.166 L 7.918 26.53 L 10.742 18.391 C 11.307 16.92 12.37 15.973 14.393 15.973 Z " fill="none"/></g></g><g style="opacity:0.3;"><g opacity="0.3"><mask id="_mask_IWZdUy30NWIl5OpsfvhysFFoMa56N0hA" x="-200%" y="-200%" width="400%" height="400%"><rect x="-200%" y="-200%" width="400%" height="400%" style="fill:white;"/><line x1="6.312" y1="25.771" x2="57.688" y2="25.771" fill="black" stroke="none"/></mask><linearGradient id="_lgradient_11" x1="0" y1="0.5" x2="1" y2="0.5"><stop offset="0%" stop-opacity="0.011907726756723025" style="stop-color:rgb(255,255,255)"/><stop offset="15.869296177590126%" stop-opacity="1" style="stop-color:rgb(255,255,255)"/><stop offset="84.04838539146984%" stop-opacity="1" style="stop-color:rgb(255,255,255)"/><stop offset="100%" stop-opacity="0.02381541367890805" style="stop-color:rgb(255,255,255)"/></linearGradient><line x1="6.312" y1="25.771" x2="57.688" y2="25.771" mask="url(#_mask_IWZdUy30NWIl5OpsfvhysFFoMa56N0hA)" vector-effect="non-scaling-stroke" stroke-width="3.736" stroke="url(#_lgradient_11)" stroke-linejoin="miter" stroke-linecap="square" stroke-miterlimit="4"/></g></g></g><g opacity="0.3"><path d=" M 23.03 36.142 L 41.03 36.142 C 42.692 36.142 44.03 37.48 44.03 39.142 C 44.03 40.804 42.692 42.142 41.03 42.142 L 23.03 42.142 C 21.368 42.142 20.03 40.804 20.03 39.142 C 20.03 37.48 21.368 36.142 23.03 36.142 Z " fill="rgb(255,255,255)"/></g><g opacity="0.8"><path d=" M 23.03 34.643 L 41.03 34.643 C 42.692 34.643 44.03 35.981 44.03 37.643 C 44.03 39.305 42.692 40.643 41.03 40.643 L 23.03 40.643 C 21.368 40.643 20.03 39.305 20.03 37.643 C 20.03 35.981 21.368 34.643 23.03 34.643 Z " fill="rgb(141,103,56)" fill-opacity="0.7372549"/></g><g opacity="0.1"><path d=" M 22.97 34.643 C 21.308 34.643 19.97 35.981 19.97 37.643 C 19.97 38.202 20.163 38.695 20.427 39.143 C 20.949 38.26 21.868 37.643 22.97 37.643 L 40.97 37.643 C 42.073 37.643 42.992 38.26 43.513 39.143 C 43.778 38.695 43.97 38.202 43.97 37.643 C 43.97 35.981 42.632 34.643 40.97 34.643 L 22.97 34.643 Z " fill="rgb(0,0,0)"/></g><g opacity="0.3"><path d=" M 21.063 17.927 L 42.609 17.927 C 44.598 17.927 46.2 18.783 46.2 19.846 C 46.2 20.91 44.598 21.765 42.609 21.765 L 21.063 21.765 C 19.073 21.765 17.472 20.91 17.472 19.846 C 17.472 18.783 19.073 17.927 21.063 17.927 Z " fill="rgb(255,255,255)"/></g><g opacity="0.8"><path d=" M 21.063 16.968 L 42.609 16.968 C 44.598 16.968 46.2 17.824 46.2 18.887 C 46.2 19.95 44.598 20.806 42.609 20.806 L 21.063 20.806 C 19.073 20.806 17.472 19.95 17.472 18.887 C 17.472 17.824 19.073 16.968 21.063 16.968 Z " fill="rgb(141,103,56)" fill-opacity="0.7372549"/></g><g opacity="0.1"><path d=" M 20.991 16.968 C 19.002 16.968 17.4 17.824 17.4 18.887 C 17.4 19.244 17.631 19.56 17.947 19.846 C 18.571 19.282 19.671 18.887 20.991 18.887 L 42.537 18.887 C 43.857 18.887 44.958 19.282 45.581 19.846 C 45.898 19.56 46.128 19.244 46.128 18.887 C 46.128 17.824 44.527 16.968 42.537 16.968 L 20.991 16.968 Z " fill="rgb(0,0,0)"/></g></g><clipPath id="_clipPath_g6uknuKKQqztcSv221om1OJK14L7Ip6J"><rect x="7.5" y="2.5" width="49.5" height="18.206" transform="matrix(1,0,0,1,0,0)" fill="rgb(255,255,255)"/></clipPath><g clip-path="url(#_clipPath_g6uknuKKQqztcSv221om1OJK14L7Ip6J)"><g><linearGradient id="_lgradient_12" x1="0.1464466094067262" y1="0.14644660940672627" x2="0.8535533905932737" y2="0.8535533905932737" gradientTransform="matrix(20.263,-5.507,5.654,21.402,19.256,6.51)" gradientUnits="userSpaceOnUse"><stop offset="0%" stop-opacity="1" style="stop-color:rgb(160,70,185)"/><stop offset="100%" stop-opacity="1" style="stop-color:rgb(87,34,202)"/></linearGradient><path d=" M 30.157 3.547 C 29.721 3.666 29.478 4.095 29.587 4.509 L 30.095 6.432 C 24.5 7.952 21.071 13.377 22.437 18.549 C 23.803 23.72 29.447 26.679 35.042 25.159 C 40.638 23.638 44.066 18.213 42.7 13.042 L 38.358 14.222 C 39.139 17.177 37.179 20.277 33.982 21.146 C 30.785 22.015 27.56 20.323 26.779 17.368 C 25.999 14.414 27.958 11.314 31.155 10.445 L 31.663 12.367 C 31.772 12.781 32.195 13.029 32.631 12.911 C 32.739 12.881 32.851 12.847 32.936 12.783 L 38.999 6.924 C 39.253 6.733 39.391 6.388 39.309 6.078 C 39.227 5.768 38.937 5.539 38.623 5.502 L 30.485 3.503 C 30.38 3.491 30.266 3.518 30.157 3.547 Z " fill="url(#_lgradient_12)"/><mask id="_mask_0X327KhKzHL3ajVfR0Fln8LtDuGi2Cab" x="-200%" y="-200%" width="400%" height="400%"><rect x="-200%" y="-200%" width="400%" height="400%" style="fill:white;"/><path d=" M 30.334 4.216 C 30.315 4.221 30.292 4.24 30.311 4.312 L 30.819 6.235 C 30.9 6.585 30.645 6.988 30.271 7.1 C 25.079 8.511 21.893 13.553 23.161 18.352 C 24.429 23.151 29.673 25.901 34.865 24.49 C 39.811 23.146 42.872 18.513 42.062 13.932 L 39.122 14.731 C 39.537 17.832 37.502 20.906 34.159 21.815 C 30.558 22.793 26.934 20.893 26.055 17.565 C 25.176 14.238 27.378 10.755 30.978 9.776 C 31.357 9.684 31.776 9.904 31.879 10.248 L 32.387 12.171 C 32.406 12.243 32.435 12.247 32.454 12.242 L 38.437 6.449 C 38.759 6.225 38.371 6.198 38.371 6.198 L 30.334 4.216 Z " fill="black" stroke="none"/></mask><linearGradient id="_lgradient_13" x1="0.1464466094067262" y1="0.14644660940672627" x2="0.8535533905932737" y2="0.8535533905932737"><stop offset="0%" stop-opacity="1" style="stop-color:rgb(97,39,200)"/><stop offset="100%" stop-opacity="1" style="stop-color:rgb(49,21,140)"/></linearGradient><path d=" M 30.334 4.216 C 30.315 4.221 30.292 4.24 30.311 4.312 L 30.819 6.235 C 30.9 6.585 30.645 6.988 30.271 7.1 C 25.079 8.511 21.893 13.553 23.161 18.352 C 24.429 23.151 29.673 25.901 34.865 24.49 C 39.811 23.146 42.872 18.513 42.062 13.932 L 39.122 14.731 C 39.537 17.832 37.502 20.906 34.159 21.815 C 30.558 22.793 26.934 20.893 26.055 17.565 C 25.176 14.238 27.378 10.755 30.978 9.776 C 31.357 9.684 31.776 9.904 31.879 10.248 L 32.387 12.171 C 32.406 12.243 32.435 12.247 32.454 12.242 L 38.437 6.449 C 38.759 6.225 38.371 6.198 38.371 6.198 L 30.334 4.216 Z " fill="none" mask="url(#_mask_0X327KhKzHL3ajVfR0Fln8LtDuGi2Cab)" vector-effect="non-scaling-stroke" stroke-width="2.6" stroke="url(#_lgradient_13)" stroke-opacity="100" stroke-linejoin="round" stroke-linecap="round" stroke-miterlimit="4"/><path d=" M 30.334 4.216 C 30.315 4.221 30.292 4.24 30.311 4.312 L 30.819 6.235 C 30.9 6.585 30.645 6.988 30.271 7.1 C 25.079 8.511 21.893 13.553 23.161 18.352 C 24.429 23.151 29.673 25.901 34.865 24.49 C 39.811 23.146 42.872 18.513 42.062 13.932 L 39.122 14.731 C 39.537 17.832 37.502 20.906 34.159 21.815 C 30.558 22.793 26.934 20.893 26.055 17.565 C 25.176 14.238 27.378 10.755 30.978 9.776 C 31.357 9.684 31.776 9.904 31.879 10.248 L 32.387 12.171 C 32.406 12.243 32.435 12.247 32.454 12.242 L 38.437 6.449 C 38.759 6.225 38.371 6.198 38.371 6.198 L 30.334 4.216 Z " fill="none"/></g></g></g></g></svg>