<?xml version="1.0" encoding="UTF-8" standalone="no"?><!DOCTYPE svg PUBLIC "-//W3C//DTD SVG 1.1//EN" "http://www.w3.org/Graphics/SVG/1.1/DTD/svg11.dtd"><svg width="100%" height="100%" viewBox="0 0 64 64" version="1.1" xmlns="http://www.w3.org/2000/svg" xmlns:xlink="http://www.w3.org/1999/xlink" xml:space="preserve" xmlns:serif="http://www.serif.com/" style="fill-rule:evenodd;clip-rule:evenodd;stroke-linecap:round;stroke-linejoin:round;"><rect x="0" y="0" width="64" height="64" style="fill:none;"/><g><g><path d="M59.426,58.927c-0.003,1.644 -12.401,2.996 -27.466,2.996c-15.065,0 -27.463,-1.352 -27.466,-2.996l0,0c0,-1.644 12.399,-2.997 27.466,-2.997c15.067,0 27.466,1.353 27.466,2.997l0,0Z" style="fill:url(#_Radial1);fill-rule:nonzero;"/><g opacity="0.4"><rect x="51.83" y="57.929" width="7.096" height="2.497" style="fill:url(#_Radial2);"/><rect x="4.994" y="57.929" width="7.096" height="2.497" style="fill:url(#_Radial3);"/><rect x="12.09" y="57.929" width="39.74" height="2.497" style="fill:url(#_Linear4);"/></g><path d="M57.428,10.237c0,-1.24 -1.007,-2.247 -2.247,-2.247l-46.442,0c-1.24,0 -2.247,1.007 -2.247,2.247l0,46.442c0,1.24 1.007,2.247 2.247,2.247l46.442,0c1.24,0 2.247,-1.007 2.247,-2.247l0,-46.442Z" style="fill:url(#_Radial5);"/><path d="M57.178,10.238c0,-1.102 -0.895,-1.997 -1.997,-1.997l-46.442,0c-1.102,0 -1.997,0.895 -1.997,1.997l0,46.442c0,1.103 0.895,1.998 1.997,1.998l46.442,0c1.102,0 1.997,-0.895 1.997,-1.998l0,-46.442Z" style="fill:none;stroke:url(#_Linear6);stroke-width:1px;"/><path d="M57.178,10.238c0,-1.102 -0.895,-1.997 -1.997,-1.997l-46.442,0c-1.102,0 -1.997,0.895 -1.997,1.997l0,46.442c0,1.103 0.895,1.998 1.997,1.998l46.442,0c1.102,0 1.997,-0.895 1.997,-1.998l0,-46.442Z" style="fill:none;"/><path d="M57.678,10.238c0,-1.378 -1.119,-2.497 -2.497,-2.497l-46.442,0c-1.378,0 -2.497,1.119 -2.497,2.497l0,46.442c0,1.378 1.119,2.497 2.497,2.497l46.442,0c1.378,0 2.497,-1.119 2.497,-2.497l0,-46.442Z" style="fill:none;stroke:#000;stroke-opacity:0.25;stroke-width:1px;stroke-linecap:butt;stroke-linejoin:miter;"/><path d="M57.678,10.238c0,-1.378 -1.119,-2.497 -2.497,-2.497l-46.442,0c-1.378,0 -2.497,1.119 -2.497,2.497l0,46.442c0,1.378 1.119,2.497 2.497,2.497l46.442,0c1.378,0 2.497,-1.119 2.497,-2.497l0,-46.442Z" style="fill:none;"/></g><path d="M21.193,38.195l0,3.841c0,0.879 0.252,1.517 0.757,1.914c0.504,0.397 1.244,0.603 2.218,0.621l0,1.81c-1.638,-0.017 -2.906,-0.392 -3.802,-1.125c-0.897,-0.733 -1.346,-1.763 -1.346,-3.091l0,-3.919c0,-0.896 -0.271,-1.536 -0.814,-1.92c-0.543,-0.384 -1.332,-0.576 -2.367,-0.576l0,-1.823c1.121,-0.017 1.931,-0.224 2.431,-0.621c0.5,-0.397 0.75,-1.009 0.75,-1.836l0,-3.958c0,-1.336 0.466,-2.375 1.397,-3.117c0.931,-0.741 2.182,-1.112 3.751,-1.112l0,1.798c-1.983,0.051 -2.975,0.909 -2.975,2.573l0,3.816c0,1.853 -0.961,2.948 -2.884,3.285l0,0.155c1.923,0.336 2.884,1.431 2.884,3.285Z" style="fill:#097bcc;fill-rule:nonzero;"/><path d="M38.226,43.509l-10.54,0l0,-18.908l2.198,0l0,16.917l8.342,0l0,1.991Z" style="fill:#0f8ce6;fill-rule:nonzero;"/><path d="M45.585,34.91l0,-0.155c-1.923,-0.337 -2.884,-1.432 -2.884,-3.285l0,-3.816c0,-1.664 -0.979,-2.522 -2.936,-2.573l0,-1.798c1.587,0 2.835,0.375 3.744,1.125c0.91,0.75 1.365,1.785 1.365,3.104l0,3.958c0,0.836 0.254,1.45 0.763,1.842c0.508,0.393 1.323,0.598 2.444,0.615l0,1.823c-1.052,0 -1.849,0.192 -2.393,0.576c-0.543,0.384 -0.814,1.024 -0.814,1.92l0,3.919c0,1.319 -0.442,2.348 -1.326,3.085c-0.884,0.737 -2.145,1.114 -3.783,1.131l0,-1.81c0.957,-0.018 1.686,-0.224 2.186,-0.621c0.5,-0.397 0.75,-1.035 0.75,-1.914l0,-3.841c0,-0.983 0.237,-1.733 0.711,-2.251c0.474,-0.517 1.199,-0.862 2.173,-1.034Z" style="fill:#097bcc;fill-rule:nonzero;"/></g><defs><radialGradient id="_Radial1" cx="0" cy="0" r="1" gradientUnits="userSpaceOnUse" gradientTransform="matrix(54.9313,0,0,5.99251,31.9601,58.9272)"><stop offset="0" style="stop-color:#000;stop-opacity:0.2"/><stop offset="1" style="stop-color:#000;stop-opacity:0"/></radialGradient><radialGradient id="_Radial2" cx="0" cy="0" r="1" gradientUnits="userSpaceOnUse" gradientTransform="matrix(7.09645,0,0,2.49684,51.82,59.177)"><stop offset="0" style="stop-color:#181818;stop-opacity:0.4"/><stop offset="1" style="stop-color:#181818;stop-opacity:0"/></radialGradient><radialGradient id="_Radial3" cx="0" cy="0" r="1" gradientUnits="userSpaceOnUse" gradientTransform="matrix(7.09645,0,0,2.49684,12.1001,59.177)"><stop offset="0" style="stop-color:#181818;stop-opacity:0.4"/><stop offset="1" style="stop-color:#181818;stop-opacity:0"/></radialGradient><linearGradient id="_Linear4" x1="0" y1="0" x2="1" y2="0" gradientUnits="userSpaceOnUse" gradientTransform="matrix(6.83341e-15,-2.50697,2.50697,6.83341e-15,33.4618,60.4353)"><stop offset="0" style="stop-color:#181818;stop-opacity:0"/><stop offset="0.5" style="stop-color:#181818;stop-opacity:0.4"/><stop offset="1" style="stop-color:#181818;stop-opacity:0"/></linearGradient><radialGradient id="_Radial5" cx="0" cy="0" r="1" gradientUnits="userSpaceOnUse" gradientTransform="matrix(50.9363,0,0,50.9363,31.9601,7.84361)"><stop offset="0" style="stop-color:#fafafa;stop-opacity:1"/><stop offset="1" style="stop-color:#e1e1e1;stop-opacity:1"/></radialGradient><linearGradient id="_Linear6" x1="0" y1="0" x2="1" y2="0" gradientUnits="userSpaceOnUse" gradientTransform="matrix(-1.91019e-17,0.118784,-0.118784,-1.91019e-17,0.0599252,0.000293821)"><stop offset="0" style="stop-color:#fff;stop-opacity:1"/><stop offset="0.03" style="stop-color:#fff;stop-opacity:0.23"/><stop offset="0.96" style="stop-color:#fff;stop-opacity:0.16"/><stop offset="1" style="stop-color:#fff;stop-opacity:0.39"/></linearGradient></defs></svg>